<svg width="88" height="42" viewBox="0 0 88 42" fill="none" xmlns="http://www.w3.org/2000/svg">
<path d="M15.792 35.7375H17.868C17.952 35.7375 18.022 35.7655 18.078 35.8215C18.138 35.8775 18.168 35.9475 18.168 36.0315C18.168 36.1155 18.138 36.1835 18.078 36.2355C18.022 36.2875 17.952 36.3135 17.868 36.3135H16.056L16.116 36.2115V37.5555L16.062 37.4955H17.598C17.682 37.4955 17.752 37.5235 17.808 37.5795C17.868 37.6355 17.898 37.7075 17.898 37.7955C17.898 37.8795 17.868 37.9475 17.808 37.9995C17.752 38.0515 17.682 38.0775 17.598 38.0775H16.074L16.116 38.0235V39.4095L16.074 39.3615H17.868C17.952 39.3615 18.022 39.3915 18.078 39.4515C18.138 39.5075 18.168 39.5735 18.168 39.6495C18.168 39.7335 18.138 39.8035 18.078 39.8595C18.022 39.9115 17.952 39.9375 17.868 39.9375H15.792C15.708 39.9375 15.636 39.9095 15.576 39.8535C15.516 39.7935 15.486 39.7195 15.486 39.6315V36.0435C15.486 35.9555 15.516 35.8835 15.576 35.8275C15.636 35.7675 15.708 35.7375 15.792 35.7375ZM19.4957 39.6315C19.4957 39.7195 19.4657 39.7935 19.4057 39.8535C19.3497 39.9095 19.2797 39.9375 19.1957 39.9375C19.1117 39.9375 19.0397 39.9095 18.9797 39.8535C18.9237 39.7935 18.8957 39.7195 18.8957 39.6315V35.8035C18.8957 35.7155 18.9257 35.6435 18.9857 35.5875C19.0457 35.5275 19.1177 35.4975 19.2017 35.4975C19.2897 35.4975 19.3597 35.5275 19.4117 35.5875C19.4677 35.6435 19.4957 35.7155 19.4957 35.8035V39.6315ZM21.8002 39.9975C21.4682 39.9975 21.1802 39.9295 20.9362 39.7935C20.6922 39.6535 20.5022 39.4635 20.3662 39.2235C20.2342 38.9795 20.1682 38.7015 20.1682 38.3895C20.1682 38.0375 20.2382 37.7375 20.3782 37.4895C20.5222 37.2375 20.7082 37.0455 20.9362 36.9135C21.1642 36.7775 21.4062 36.7095 21.6622 36.7095C21.8582 36.7095 22.0442 36.7495 22.2202 36.8295C22.3962 36.9055 22.5522 37.0135 22.6882 37.1535C22.8282 37.2895 22.9382 37.4515 23.0182 37.6395C23.0982 37.8235 23.1402 38.0255 23.1442 38.2455C23.1402 38.3255 23.1082 38.3915 23.0482 38.4435C22.9882 38.4955 22.9182 38.5215 22.8382 38.5215H20.5042L20.3602 38.0115H22.6162L22.5022 38.1195V37.9695C22.4942 37.8295 22.4482 37.7075 22.3642 37.6035C22.2802 37.4955 22.1762 37.4135 22.0522 37.3575C21.9282 37.2975 21.7982 37.2675 21.6622 37.2675C21.5422 37.2675 21.4262 37.2875 21.3142 37.3275C21.2062 37.3635 21.1082 37.4235 21.0202 37.5075C20.9362 37.5915 20.8682 37.7035 20.8162 37.8435C20.7682 37.9795 20.7442 38.1495 20.7442 38.3535C20.7442 38.5735 20.7902 38.7655 20.8822 38.9295C20.9742 39.0935 21.0982 39.2215 21.2542 39.3135C21.4102 39.4015 21.5822 39.4455 21.7702 39.4455C21.9182 39.4455 22.0402 39.4315 22.1362 39.4035C22.2322 39.3715 22.3122 39.3335 22.3762 39.2895C22.4402 39.2455 22.4962 39.2035 22.5442 39.1635C22.6042 39.1275 22.6642 39.1095 22.7242 39.1095C22.7962 39.1095 22.8562 39.1355 22.9042 39.1875C22.9522 39.2355 22.9762 39.2935 22.9762 39.3615C22.9762 39.4495 22.9322 39.5295 22.8442 39.6015C22.7362 39.7055 22.5862 39.7975 22.3942 39.8775C22.2062 39.9575 22.0082 39.9975 21.8002 39.9975ZM23.865 36.7515C23.925 36.7515 23.981 36.7675 24.033 36.7995C24.089 36.8315 24.129 36.8795 24.153 36.9435L25.095 39.1215L24.981 39.1755L25.935 36.9495C25.991 36.8175 26.081 36.7535 26.205 36.7575C26.285 36.7575 26.351 36.7835 26.403 36.8355C26.459 36.8835 26.487 36.9475 26.487 37.0275C26.487 37.0515 26.483 37.0775 26.475 37.1055C26.467 37.1295 26.457 37.1535 26.445 37.1775L25.305 39.7455C25.253 39.8655 25.167 39.9295 25.047 39.9375C24.987 39.9455 24.927 39.9335 24.867 39.9015C24.811 39.8655 24.767 39.8135 24.735 39.7455L23.601 37.1775C23.593 37.1615 23.585 37.1415 23.577 37.1175C23.569 37.0895 23.565 37.0575 23.565 37.0215C23.565 36.9615 23.591 36.9015 23.643 36.8415C23.699 36.7815 23.773 36.7515 23.865 36.7515ZM29.672 36.7335C29.76 36.7335 29.832 36.7635 29.888 36.8235C29.944 36.8795 29.972 36.9515 29.972 37.0395V39.6315C29.972 39.7195 29.944 39.7935 29.888 39.8535C29.832 39.9095 29.76 39.9375 29.672 39.9375C29.588 39.9375 29.516 39.9095 29.456 39.8535C29.4 39.7935 29.372 39.7195 29.372 39.6315V39.1995L29.498 39.2175C29.498 39.2895 29.468 39.3695 29.408 39.4575C29.352 39.5455 29.274 39.6315 29.174 39.7155C29.074 39.7955 28.956 39.8635 28.82 39.9195C28.684 39.9715 28.538 39.9975 28.382 39.9975C28.106 39.9975 27.858 39.9275 27.638 39.7875C27.418 39.6435 27.244 39.4475 27.116 39.1995C26.988 38.9515 26.924 38.6695 26.924 38.3535C26.924 38.0295 26.988 37.7455 27.116 37.5015C27.244 37.2535 27.416 37.0595 27.632 36.9195C27.852 36.7795 28.096 36.7095 28.364 36.7095C28.536 36.7095 28.694 36.7375 28.838 36.7935C28.986 36.8495 29.114 36.9215 29.222 37.0095C29.33 37.0975 29.412 37.1915 29.468 37.2915C29.528 37.3875 29.558 37.4795 29.558 37.5675L29.372 37.5855V37.0395C29.372 36.9555 29.4 36.8835 29.456 36.8235C29.516 36.7635 29.588 36.7335 29.672 36.7335ZM28.448 39.4455C28.636 39.4455 28.802 39.3975 28.946 39.3015C29.09 39.2055 29.202 39.0755 29.282 38.9115C29.362 38.7435 29.402 38.5575 29.402 38.3535C29.402 38.1455 29.362 37.9595 29.282 37.7955C29.202 37.6315 29.09 37.5015 28.946 37.4055C28.802 37.3095 28.636 37.2615 28.448 37.2615C28.264 37.2615 28.1 37.3095 27.956 37.4055C27.816 37.5015 27.704 37.6315 27.62 37.7955C27.54 37.9595 27.5 38.1455 27.5 38.3535C27.5 38.5575 27.54 38.7435 27.62 38.9115C27.704 39.0755 27.816 39.2055 27.956 39.3015C28.1 39.3975 28.264 39.4455 28.448 39.4455ZM30.7706 36.8175H32.1806C32.2606 36.8175 32.3266 36.8455 32.3786 36.9015C32.4346 36.9535 32.4626 37.0195 32.4626 37.0995C32.4626 37.1755 32.4346 37.2395 32.3786 37.2915C32.3266 37.3435 32.2606 37.3695 32.1806 37.3695H30.7706C30.6906 37.3695 30.6226 37.3435 30.5666 37.2915C30.5146 37.2355 30.4886 37.1695 30.4886 37.0935C30.4886 37.0135 30.5146 36.9475 30.5666 36.8955C30.6226 36.8435 30.6906 36.8175 30.7706 36.8175ZM31.4006 36.0375C31.4886 36.0375 31.5606 36.0675 31.6166 36.1275C31.6726 36.1835 31.7006 36.2555 31.7006 36.3435V39.1275C31.7006 39.1995 31.7126 39.2575 31.7366 39.3015C31.7606 39.3455 31.7926 39.3755 31.8326 39.3915C31.8766 39.4075 31.9206 39.4155 31.9646 39.4155C32.0086 39.4155 32.0466 39.4075 32.0786 39.3915C32.1146 39.3755 32.1566 39.3675 32.2046 39.3675C32.2526 39.3675 32.2966 39.3895 32.3366 39.4335C32.3766 39.4775 32.3966 39.5375 32.3966 39.6135C32.3966 39.7095 32.3446 39.7875 32.2406 39.8475C32.1366 39.9075 32.0246 39.9375 31.9046 39.9375C31.8366 39.9375 31.7566 39.9315 31.6646 39.9195C31.5726 39.9075 31.4826 39.8775 31.3946 39.8295C31.3106 39.7815 31.2406 39.7055 31.1846 39.6015C31.1286 39.4935 31.1006 39.3435 31.1006 39.1515V36.3435C31.1006 36.2555 31.1286 36.1835 31.1846 36.1275C31.2446 36.0675 31.3166 36.0375 31.4006 36.0375ZM34.5677 39.9975C34.2357 39.9975 33.9477 39.9295 33.7037 39.7935C33.4597 39.6535 33.2697 39.4635 33.1337 39.2235C33.0017 38.9795 32.9357 38.7015 32.9357 38.3895C32.9357 38.0375 33.0057 37.7375 33.1457 37.4895C33.2897 37.2375 33.4757 37.0455 33.7037 36.9135C33.9317 36.7775 34.1737 36.7095 34.4297 36.7095C34.6257 36.7095 34.8117 36.7495 34.9877 36.8295C35.1637 36.9055 35.3197 37.0135 35.4557 37.1535C35.5957 37.2895 35.7057 37.4515 35.7857 37.6395C35.8657 37.8235 35.9077 38.0255 35.9117 38.2455C35.9077 38.3255 35.8757 38.3915 35.8157 38.4435C35.7557 38.4955 35.6857 38.5215 35.6057 38.5215H33.2717L33.1277 38.0115H35.3837L35.2697 38.1195V37.9695C35.2617 37.8295 35.2157 37.7075 35.1317 37.6035C35.0477 37.4955 34.9437 37.4135 34.8197 37.3575C34.6957 37.2975 34.5657 37.2675 34.4297 37.2675C34.3097 37.2675 34.1937 37.2875 34.0817 37.3275C33.9737 37.3635 33.8757 37.4235 33.7877 37.5075C33.7037 37.5915 33.6357 37.7035 33.5837 37.8435C33.5357 37.9795 33.5117 38.1495 33.5117 38.3535C33.5117 38.5735 33.5577 38.7655 33.6497 38.9295C33.7417 39.0935 33.8657 39.2215 34.0217 39.3135C34.1777 39.4015 34.3497 39.4455 34.5377 39.4455C34.6857 39.4455 34.8077 39.4315 34.9037 39.4035C34.9997 39.3715 35.0797 39.3335 35.1437 39.2895C35.2077 39.2455 35.2637 39.2035 35.3117 39.1635C35.3717 39.1275 35.4317 39.1095 35.4917 39.1095C35.5637 39.1095 35.6237 39.1355 35.6717 39.1875C35.7197 39.2355 35.7437 39.2935 35.7437 39.3615C35.7437 39.4495 35.6997 39.5295 35.6117 39.6015C35.5037 39.7055 35.3537 39.7975 35.1617 39.8775C34.9737 39.9575 34.7757 39.9975 34.5677 39.9975ZM40.6058 36.7575C40.6938 36.7575 40.7658 36.7875 40.8218 36.8475C40.8778 36.9035 40.9058 36.9755 40.9058 37.0635V39.6435C40.9058 39.9955 40.8378 40.2815 40.7018 40.5015C40.5698 40.7215 40.3898 40.8815 40.1618 40.9815C39.9378 41.0855 39.6838 41.1375 39.3998 41.1375C39.2558 41.1375 39.1118 41.1235 38.9678 41.0955C38.8238 41.0715 38.7058 41.0355 38.6138 40.9875C38.5178 40.9435 38.4498 40.8895 38.4098 40.8255C38.3698 40.7615 38.3638 40.6915 38.3918 40.6155C38.4198 40.5195 38.4678 40.4535 38.5358 40.4175C38.6038 40.3855 38.6738 40.3835 38.7458 40.4115C38.8138 40.4395 38.9038 40.4755 39.0158 40.5195C39.1278 40.5635 39.2558 40.5855 39.3998 40.5855C39.5958 40.5855 39.7618 40.5535 39.8978 40.4895C40.0338 40.4255 40.1358 40.3255 40.2038 40.1895C40.2758 40.0535 40.3118 39.8775 40.3118 39.6615V39.2475L40.4078 39.3915C40.3438 39.5235 40.2598 39.6335 40.1558 39.7215C40.0518 39.8095 39.9278 39.8775 39.7838 39.9255C39.6438 39.9735 39.4878 39.9975 39.3158 39.9975C39.0958 39.9975 38.9058 39.9495 38.7458 39.8535C38.5898 39.7535 38.4698 39.6175 38.3858 39.4455C38.3018 39.2695 38.2598 39.0695 38.2598 38.8455V37.0635C38.2598 36.9755 38.2878 36.9035 38.3438 36.8475C38.3998 36.7875 38.4718 36.7575 38.5598 36.7575C38.6438 36.7575 38.7138 36.7875 38.7698 36.8475C38.8298 36.9035 38.8598 36.9755 38.8598 37.0635V38.6835C38.8598 38.9475 38.9178 39.1415 39.0338 39.2655C39.1498 39.3855 39.3218 39.4455 39.5498 39.4455C39.7018 39.4455 39.8338 39.4135 39.9458 39.3495C40.0578 39.2855 40.1458 39.1975 40.2098 39.0855C40.2738 38.9695 40.3058 38.8355 40.3058 38.6835V37.0635C40.3058 36.9755 40.3338 36.9035 40.3898 36.8475C40.4498 36.7875 40.5218 36.7575 40.6058 36.7575ZM44.7409 38.3595C44.7409 38.6795 44.6709 38.9635 44.5309 39.2115C44.3909 39.4555 44.2009 39.6475 43.9609 39.7875C43.7209 39.9275 43.4509 39.9975 43.1509 39.9975C42.8509 39.9975 42.5809 39.9275 42.3409 39.7875C42.1009 39.6475 41.9089 39.4555 41.7649 39.2115C41.6249 38.9635 41.5549 38.6795 41.5549 38.3595C41.5549 38.0355 41.6249 37.7515 41.7649 37.5075C41.9089 37.2595 42.1009 37.0655 42.3409 36.9255C42.5809 36.7815 42.8509 36.7095 43.1509 36.7095C43.4509 36.7095 43.7209 36.7815 43.9609 36.9255C44.2009 37.0655 44.3909 37.2595 44.5309 37.5075C44.6709 37.7515 44.7409 38.0355 44.7409 38.3595ZM44.1409 38.3595C44.1409 38.1395 44.0969 37.9495 44.0089 37.7895C43.9209 37.6255 43.8009 37.4975 43.6489 37.4055C43.5009 37.3095 43.3349 37.2615 43.1509 37.2615C42.9669 37.2615 42.7989 37.3095 42.6469 37.4055C42.4949 37.4975 42.3749 37.6255 42.2869 37.7895C42.1989 37.9495 42.1549 38.1395 42.1549 38.3595C42.1549 38.5715 42.1989 38.7595 42.2869 38.9235C42.3749 39.0875 42.4949 39.2155 42.6469 39.3075C42.7989 39.3995 42.9669 39.4455 43.1509 39.4455C43.3349 39.4455 43.5009 39.3995 43.6489 39.3075C43.8009 39.2155 43.9209 39.0875 44.0089 38.9235C44.0969 38.7595 44.1409 38.5715 44.1409 38.3595ZM47.772 36.7815C47.856 36.7815 47.926 36.8115 47.982 36.8715C48.042 36.9275 48.072 36.9995 48.072 37.0875V38.6655C48.072 39.0815 47.956 39.4075 47.724 39.6435C47.492 39.8755 47.164 39.9915 46.74 39.9915C46.32 39.9915 45.994 39.8755 45.762 39.6435C45.534 39.4075 45.42 39.0815 45.42 38.6655V37.0875C45.42 36.9995 45.448 36.9275 45.504 36.8715C45.56 36.8115 45.632 36.7815 45.72 36.7815C45.804 36.7815 45.874 36.8115 45.93 36.8715C45.99 36.9275 46.02 36.9995 46.02 37.0875V38.6655C46.02 38.9255 46.08 39.1195 46.2 39.2475C46.324 39.3755 46.504 39.4395 46.74 39.4395C46.98 39.4395 47.162 39.3755 47.286 39.2475C47.41 39.1195 47.472 38.9255 47.472 38.6655V37.0875C47.472 36.9995 47.5 36.9275 47.556 36.8715C47.612 36.8115 47.684 36.7815 47.772 36.7815ZM49.2063 39.9375C49.1183 39.9375 49.0463 39.9095 48.9903 39.8535C48.9343 39.7935 48.9063 39.7195 48.9063 39.6315V37.0875C48.9063 36.9995 48.9343 36.9275 48.9903 36.8715C49.0463 36.8115 49.1183 36.7815 49.2063 36.7815C49.2903 36.7815 49.3603 36.8115 49.4163 36.8715C49.4763 36.9275 49.5063 36.9995 49.5063 37.0875V37.7595L49.4463 37.5015C49.4783 37.3895 49.5263 37.2855 49.5903 37.1895C49.6583 37.0935 49.7383 37.0095 49.8303 36.9375C49.9223 36.8655 50.0243 36.8095 50.1363 36.7695C50.2523 36.7295 50.3723 36.7095 50.4963 36.7095C50.6003 36.7095 50.6903 36.7375 50.7663 36.7935C50.8423 36.8495 50.8803 36.9195 50.8803 37.0035C50.8803 37.1115 50.8523 37.1915 50.7963 37.2435C50.7403 37.2915 50.6783 37.3155 50.6103 37.3155C50.5503 37.3155 50.4923 37.3035 50.4363 37.2795C50.3803 37.2515 50.3143 37.2375 50.2383 37.2375C50.1543 37.2375 50.0683 37.2595 49.9803 37.3035C49.8923 37.3475 49.8123 37.4135 49.7403 37.5015C49.6683 37.5855 49.6103 37.6855 49.5663 37.8015C49.5263 37.9175 49.5063 38.0475 49.5063 38.1915V39.6315C49.5063 39.7195 49.4763 39.7935 49.4163 39.8535C49.3603 39.9095 49.2903 39.9375 49.2063 39.9375ZM54.6741 36.7275C54.9541 36.7275 55.2021 36.7975 55.4181 36.9375C55.6381 37.0775 55.8121 37.2695 55.9401 37.5135C56.0681 37.7535 56.1321 38.0335 56.1321 38.3535C56.1321 38.6735 56.0681 38.9575 55.9401 39.2055C55.8121 39.4495 55.6401 39.6415 55.4241 39.7815C55.2081 39.9215 54.9641 39.9915 54.6921 39.9915C54.5401 39.9915 54.3961 39.9675 54.2601 39.9195C54.1241 39.8715 54.0041 39.8095 53.9001 39.7335C53.7961 39.6535 53.7101 39.5695 53.6421 39.4815C53.5781 39.3935 53.5381 39.3115 53.5221 39.2355L53.6841 39.1575V40.8315C53.6841 40.9195 53.6541 40.9915 53.5941 41.0475C53.5381 41.1075 53.4681 41.1375 53.3841 41.1375C53.2961 41.1375 53.2241 41.1075 53.1681 41.0475C53.1121 40.9915 53.0841 40.9195 53.0841 40.8315V37.0755C53.0841 36.9915 53.1121 36.9195 53.1681 36.8595C53.2241 36.7995 53.2961 36.7695 53.3841 36.7695C53.4681 36.7695 53.5381 36.7995 53.5941 36.8595C53.6541 36.9195 53.6841 36.9915 53.6841 37.0755V37.4895L53.5881 37.4355C53.6001 37.3595 53.6381 37.2815 53.7021 37.2015C53.7661 37.1175 53.8461 37.0395 53.9421 36.9675C54.0421 36.8955 54.1541 36.8375 54.2781 36.7935C54.4061 36.7495 54.5381 36.7275 54.6741 36.7275ZM54.6081 37.2795C54.4161 37.2795 54.2481 37.3275 54.1041 37.4235C53.9641 37.5155 53.8541 37.6415 53.7741 37.8015C53.6941 37.9615 53.6541 38.1455 53.6541 38.3535C53.6541 38.5575 53.6941 38.7435 53.7741 38.9115C53.8541 39.0755 53.9641 39.2055 54.1041 39.3015C54.2481 39.3935 54.4161 39.4395 54.6081 39.4395C54.7961 39.4395 54.9601 39.3935 55.1001 39.3015C55.2401 39.2055 55.3501 39.0755 55.4301 38.9115C55.5141 38.7435 55.5561 38.5575 55.5561 38.3535C55.5561 38.1495 55.5141 37.9675 55.4301 37.8075C55.3501 37.6435 55.2401 37.5155 55.1001 37.4235C54.9601 37.3275 54.7961 37.2795 54.6081 37.2795ZM59.3966 36.7335C59.4846 36.7335 59.5566 36.7635 59.6126 36.8235C59.6686 36.8795 59.6966 36.9515 59.6966 37.0395V39.6315C59.6966 39.7195 59.6686 39.7935 59.6126 39.8535C59.5566 39.9095 59.4846 39.9375 59.3966 39.9375C59.3126 39.9375 59.2406 39.9095 59.1806 39.8535C59.1246 39.7935 59.0966 39.7195 59.0966 39.6315V39.1995L59.2226 39.2175C59.2226 39.2895 59.1926 39.3695 59.1326 39.4575C59.0766 39.5455 58.9986 39.6315 58.8986 39.7155C58.7986 39.7955 58.6806 39.8635 58.5446 39.9195C58.4086 39.9715 58.2626 39.9975 58.1066 39.9975C57.8306 39.9975 57.5826 39.9275 57.3626 39.7875C57.1426 39.6435 56.9686 39.4475 56.8406 39.1995C56.7126 38.9515 56.6486 38.6695 56.6486 38.3535C56.6486 38.0295 56.7126 37.7455 56.8406 37.5015C56.9686 37.2535 57.1406 37.0595 57.3566 36.9195C57.5766 36.7795 57.8206 36.7095 58.0886 36.7095C58.2606 36.7095 58.4186 36.7375 58.5626 36.7935C58.7106 36.8495 58.8386 36.9215 58.9466 37.0095C59.0546 37.0975 59.1366 37.1915 59.1926 37.2915C59.2526 37.3875 59.2826 37.4795 59.2826 37.5675L59.0966 37.5855V37.0395C59.0966 36.9555 59.1246 36.8835 59.1806 36.8235C59.2406 36.7635 59.3126 36.7335 59.3966 36.7335ZM58.1726 39.4455C58.3606 39.4455 58.5266 39.3975 58.6706 39.3015C58.8146 39.2055 58.9266 39.0755 59.0066 38.9115C59.0866 38.7435 59.1266 38.5575 59.1266 38.3535C59.1266 38.1455 59.0866 37.9595 59.0066 37.7955C58.9266 37.6315 58.8146 37.5015 58.6706 37.4055C58.5266 37.3095 58.3606 37.2615 58.1726 37.2615C57.9886 37.2615 57.8246 37.3095 57.6806 37.4055C57.5406 37.5015 57.4286 37.6315 57.3446 37.7955C57.2646 37.9595 57.2246 38.1455 57.2246 38.3535C57.2246 38.5575 57.2646 38.7435 57.3446 38.9115C57.4286 39.0755 57.5406 39.2055 57.6806 39.3015C57.8246 39.3975 57.9886 39.4455 58.1726 39.4455ZM61.1852 39.6315C61.1852 39.7195 61.1552 39.7935 61.0952 39.8535C61.0392 39.9095 60.9692 39.9375 60.8852 39.9375C60.8012 39.9375 60.7292 39.9095 60.6692 39.8535C60.6132 39.7935 60.5852 39.7195 60.5852 39.6315V35.8035C60.5852 35.7155 60.6152 35.6435 60.6752 35.5875C60.7352 35.5275 60.8072 35.4975 60.8912 35.4975C60.9792 35.4975 61.0492 35.5275 61.1012 35.5875C61.1572 35.6435 61.1852 35.7155 61.1852 35.8035V39.6315ZM64.6642 36.7335C64.7522 36.7335 64.8242 36.7635 64.8802 36.8235C64.9362 36.8795 64.9642 36.9515 64.9642 37.0395V39.6315C64.9642 39.7195 64.9362 39.7935 64.8802 39.8535C64.8242 39.9095 64.7522 39.9375 64.6642 39.9375C64.5802 39.9375 64.5082 39.9095 64.4482 39.8535C64.3922 39.7935 64.3642 39.7195 64.3642 39.6315V39.1995L64.4902 39.2175C64.4902 39.2895 64.4602 39.3695 64.4002 39.4575C64.3442 39.5455 64.2662 39.6315 64.1662 39.7155C64.0662 39.7955 63.9482 39.8635 63.8122 39.9195C63.6762 39.9715 63.5302 39.9975 63.3742 39.9975C63.0982 39.9975 62.8502 39.9275 62.6302 39.7875C62.4102 39.6435 62.2362 39.4475 62.1082 39.1995C61.9802 38.9515 61.9162 38.6695 61.9162 38.3535C61.9162 38.0295 61.9802 37.7455 62.1082 37.5015C62.2362 37.2535 62.4082 37.0595 62.6242 36.9195C62.8442 36.7795 63.0882 36.7095 63.3562 36.7095C63.5282 36.7095 63.6862 36.7375 63.8302 36.7935C63.9782 36.8495 64.1062 36.9215 64.2142 37.0095C64.3222 37.0975 64.4042 37.1915 64.4602 37.2915C64.5202 37.3875 64.5502 37.4795 64.5502 37.5675L64.3642 37.5855V37.0395C64.3642 36.9555 64.3922 36.8835 64.4482 36.8235C64.5082 36.7635 64.5802 36.7335 64.6642 36.7335ZM63.4402 39.4455C63.6282 39.4455 63.7942 39.3975 63.9382 39.3015C64.0822 39.2055 64.1942 39.0755 64.2742 38.9115C64.3542 38.7435 64.3942 38.5575 64.3942 38.3535C64.3942 38.1455 64.3542 37.9595 64.2742 37.7955C64.1942 37.6315 64.0822 37.5015 63.9382 37.4055C63.7942 37.3095 63.6282 37.2615 63.4402 37.2615C63.2562 37.2615 63.0922 37.3095 62.9482 37.4055C62.8082 37.5015 62.6962 37.6315 62.6122 37.7955C62.5322 37.9595 62.4922 38.1455 62.4922 38.3535C62.4922 38.5575 62.5322 38.7435 62.6122 38.9115C62.6962 39.0755 62.8082 39.2055 62.9482 39.3015C63.0922 39.3975 63.2562 39.4455 63.4402 39.4455ZM65.7628 36.8175H67.1728C67.2528 36.8175 67.3188 36.8455 67.3708 36.9015C67.4268 36.9535 67.4548 37.0195 67.4548 37.0995C67.4548 37.1755 67.4268 37.2395 67.3708 37.2915C67.3188 37.3435 67.2528 37.3695 67.1728 37.3695H65.7628C65.6828 37.3695 65.6148 37.3435 65.5588 37.2915C65.5068 37.2355 65.4808 37.1695 65.4808 37.0935C65.4808 37.0135 65.5068 36.9475 65.5588 36.8955C65.6148 36.8435 65.6828 36.8175 65.7628 36.8175ZM66.3928 36.0375C66.4808 36.0375 66.5528 36.0675 66.6088 36.1275C66.6648 36.1835 66.6928 36.2555 66.6928 36.3435V39.1275C66.6928 39.1995 66.7048 39.2575 66.7288 39.3015C66.7528 39.3455 66.7848 39.3755 66.8248 39.3915C66.8688 39.4075 66.9128 39.4155 66.9568 39.4155C67.0008 39.4155 67.0388 39.4075 67.0708 39.3915C67.1068 39.3755 67.1488 39.3675 67.1968 39.3675C67.2448 39.3675 67.2888 39.3895 67.3288 39.4335C67.3688 39.4775 67.3888 39.5375 67.3888 39.6135C67.3888 39.7095 67.3368 39.7875 67.2328 39.8475C67.1288 39.9075 67.0168 39.9375 66.8968 39.9375C66.8288 39.9375 66.7488 39.9315 66.6568 39.9195C66.5648 39.9075 66.4748 39.8775 66.3868 39.8295C66.3028 39.7815 66.2328 39.7055 66.1768 39.6015C66.1208 39.4935 66.0928 39.3435 66.0928 39.1515V36.3435C66.0928 36.2555 66.1208 36.1835 66.1768 36.1275C66.2368 36.0675 66.3088 36.0375 66.3928 36.0375ZM69.5599 39.9975C69.2279 39.9975 68.9399 39.9295 68.6959 39.7935C68.4519 39.6535 68.2619 39.4635 68.1259 39.2235C67.9939 38.9795 67.9279 38.7015 67.9279 38.3895C67.9279 38.0375 67.9979 37.7375 68.1379 37.4895C68.2819 37.2375 68.4679 37.0455 68.6959 36.9135C68.9239 36.7775 69.1659 36.7095 69.4219 36.7095C69.6179 36.7095 69.8039 36.7495 69.9799 36.8295C70.1559 36.9055 70.3119 37.0135 70.4479 37.1535C70.5879 37.2895 70.6979 37.4515 70.7779 37.6395C70.8579 37.8235 70.8999 38.0255 70.9039 38.2455C70.8999 38.3255 70.8679 38.3915 70.8079 38.4435C70.7479 38.4955 70.6779 38.5215 70.5979 38.5215H68.2639L68.1199 38.0115H70.3759L70.2619 38.1195V37.9695C70.2539 37.8295 70.2079 37.7075 70.1239 37.6035C70.0399 37.4955 69.9359 37.4135 69.8119 37.3575C69.6879 37.2975 69.5579 37.2675 69.4219 37.2675C69.3019 37.2675 69.1859 37.2875 69.0739 37.3275C68.9659 37.3635 68.8679 37.4235 68.7799 37.5075C68.6959 37.5915 68.6279 37.7035 68.5759 37.8435C68.5279 37.9795 68.5039 38.1495 68.5039 38.3535C68.5039 38.5735 68.5499 38.7655 68.6419 38.9295C68.7339 39.0935 68.8579 39.2215 69.0139 39.3135C69.1699 39.4015 69.3419 39.4455 69.5299 39.4455C69.6779 39.4455 69.7999 39.4315 69.8959 39.4035C69.9919 39.3715 70.0719 39.3335 70.1359 39.2895C70.1999 39.2455 70.2559 39.2035 70.3039 39.1635C70.3639 39.1275 70.4239 39.1095 70.4839 39.1095C70.5559 39.1095 70.6159 39.1355 70.6639 39.1875C70.7119 39.2355 70.7359 39.2935 70.7359 39.3615C70.7359 39.4495 70.6919 39.5295 70.6039 39.6015C70.4959 39.7055 70.3459 39.7975 70.1539 39.8775C69.9659 39.9575 69.7679 39.9975 69.5599 39.9975Z" fill="black"/>
<g clip-path="url(#clip0_595_10531)">
<path d="M43.3099 9.14821C43.69 8.19965 42.8961 6.59854 44.5073 6.71627C45.9369 6.82054 45.4357 8.27702 45.4458 9.18858C45.4895 13.1611 45.5736 17.1403 45.4324 21.1095C45.2642 25.8792 43.542 28.2439 39.7242 29.3034C37.1745 30.0098 34.608 29.7071 32.3106 28.2304C31.8868 27.9579 31.2241 27.5207 31.5471 26.9253C31.9305 26.2189 32.6167 26.5822 33.1751 26.8547C36.559 28.513 40.7266 27.8133 42.4185 25.2805C43.3671 23.8643 43.5588 22.2868 43.3536 20.2988C41.6549 22.4718 39.5829 23.5919 37.0231 23.5952C34.4466 23.5952 32.4653 22.354 30.9382 20.3728C28.3919 17.0731 28.8864 11.2236 31.9036 8.33084C35.0587 5.30688 39.2936 5.57934 43.3031 9.14485L43.3099 9.14821ZM43.4646 14.9539C43.4646 14.5604 43.4915 14.1668 43.4612 13.78C43.2258 10.8536 41.2109 8.72102 38.1533 8.1492C35.7517 7.70183 33.0876 9.2693 31.944 11.7652C31.0223 13.7733 31.1905 15.8352 31.7623 17.8467C32.3644 19.9692 36.2024 22.3675 38.0625 21.8192C41.5137 20.8067 43.468 18.802 43.4646 14.9539Z" fill="black"/>
<path d="M19.1628 16.6189C19.1628 17.2345 19.1628 17.8501 19.1628 18.469C19.1628 21.3987 19.1359 21.5097 16.3104 22.5929C9.98999 25.0214 3.76717 22.6299 1.08631 16.7501C-1.62482 10.7964 0.911402 3.89748 6.72385 1.28054C10.1548 -0.263397 13.6665 -0.253306 17.0975 1.41508C17.7567 1.738 18.7591 1.98691 18.2949 3.05993C17.8341 4.12958 17.0369 3.59475 16.3137 3.29202C13.8784 2.27955 11.3489 1.89609 8.80934 2.67983C4.709 3.94794 2.39142 7.20399 2.24679 11.6171C2.11224 15.7309 4.28182 19.1686 8.04915 20.7966C10.7872 21.9773 13.4748 21.7015 16.122 20.4838C16.3709 20.3695 16.6097 20.2046 16.8015 20.0129C17.0033 19.8077 17.0907 14.2307 16.9226 14.0121C16.6299 13.6387 16.2061 13.7632 15.8294 13.7598C14.5982 13.7464 13.3638 13.7598 12.1327 13.7598C11.396 13.7598 10.9217 13.3864 10.915 12.67C10.9083 12.0107 11.4297 11.6508 12.0351 11.6407C13.9961 11.6003 15.9572 11.5801 17.9148 11.6373C18.749 11.6609 19.2065 12.2024 19.193 13.0904C19.1762 14.2677 19.1897 15.4417 19.1897 16.6189C19.1829 16.6189 19.1762 16.6189 19.1695 16.6189H19.1628Z" fill="black"/>
<path d="M63.2375 20.5353C61.4547 22.2373 59.7392 23.5659 57.3375 23.5088C53.8191 23.4247 51.3603 21.7327 50.0955 18.5103C48.2791 13.8852 49.9442 8.08962 55.0906 6.55578C57.7076 5.7754 60.0621 6.33377 62.1375 8.08625C62.8304 8.67153 63.4628 9.20636 63.5065 7.66916C63.5267 6.99642 63.9203 6.61632 64.5796 6.66005C65.2725 6.70714 65.5147 7.2386 65.5079 7.84743C65.4575 13.0511 65.8544 18.2749 65.3028 23.4516C64.9731 26.5495 62.8843 28.5812 59.8031 29.2909C57.3611 29.856 54.9191 29.8123 52.6788 28.4433C52.107 28.0935 51.3266 27.6562 51.6294 26.9464C51.996 26.0786 52.8201 26.6202 53.3819 26.8724C54.8551 27.5385 56.3823 27.6831 57.9699 27.636C61.67 27.5284 63.9943 24.5582 63.2375 20.5252V20.5353ZM63.557 14.9852C63.5637 10.9218 60.9905 8.01898 57.4351 8.07953C53.92 8.14007 51.3334 11.1169 51.2795 15.0928C51.2257 19.0889 54.6432 21.8404 57.4822 21.7731C60.6474 21.6957 63.6983 19.0552 63.557 14.9852Z" fill="black"/>
<path d="M81.9402 6.27087C83.8911 6.31459 85.6705 6.80569 87.1001 8.23862C87.5441 8.68599 87.8064 9.14682 87.3288 9.6951C86.8478 10.2434 86.3399 10.0718 85.8656 9.64801C84.4596 8.39672 82.8114 7.8148 80.958 8.12426C79.7807 8.32271 78.6808 8.80709 78.4587 10.2266C78.2199 11.7503 78.9364 12.6451 80.3256 13.1799C81.6072 13.671 82.8988 14.0982 84.2241 14.4648C86.8781 15.2015 87.9309 16.5099 87.9309 18.7535C87.9309 21.1518 86.8511 22.3661 84.1905 23.2104C81.143 24.1758 78.6236 23.2575 76.4103 21.1888C75.9192 20.728 75.1186 20.136 75.8216 19.3657C76.5717 18.5416 77.2142 19.1773 77.7726 19.7895C79.4611 21.6463 81.5937 21.9894 83.918 21.4915C85.0987 21.2393 85.953 20.5834 86.0775 19.2513C86.202 17.926 85.5158 17.1019 84.3856 16.6512C83.1006 16.1399 81.7585 15.7834 80.4635 15.299C79.1012 14.7877 77.7053 14.2764 76.9148 12.9209C75.2935 10.1357 77.4194 6.63078 80.9411 6.27759C81.2742 6.24396 81.6139 6.27423 81.9503 6.27423L81.9402 6.27087Z" fill="black"/>
<path d="M23.3848 14.6603C23.3848 12.4234 23.3848 10.1832 23.3848 7.94637C23.3848 7.17272 23.5227 6.35198 24.4578 6.34189C25.4333 6.3318 25.4871 7.16935 25.4871 7.93964C25.4803 12.5277 25.4803 17.1158 25.4871 21.7072C25.4871 22.4439 25.3727 23.1334 24.4712 23.1233C23.6101 23.1166 23.4016 22.4573 23.4016 21.7106C23.4016 19.3594 23.4016 17.0081 23.4016 14.6603C23.3949 14.6603 23.3881 14.6603 23.3848 14.6603Z" fill="black"/>
<path d="M71.8107 0.523438C72.4599 0.550347 73.1024 0.631076 72.7929 1.67382C72.1403 3.85685 71.5248 6.05334 70.8722 8.23974C70.7242 8.7342 70.4619 9.25557 69.8295 9.09411C69.2711 8.94947 69.3619 8.41465 69.4158 7.96728C69.6815 5.86497 69.9876 3.76603 70.2062 1.66036C70.3105 0.647894 70.9361 0.530165 71.8107 0.526801V0.523438Z" fill="black"/>
<path d="M24.3531 1.56675C25.3487 1.47593 25.8735 1.89639 25.8869 2.88195C25.9038 3.95833 25.009 4.06933 24.3161 4.14333C23.5324 4.22743 22.9033 3.76996 22.8966 2.88195C22.8865 1.9233 23.4348 1.48266 24.3531 1.56675Z" fill="black"/>
<line x1="33" y1="1" x2="63" y2="1" stroke="#F6B4B4" stroke-width="2"/>
</g>
<defs>
<clipPath id="clip0_595_10531">
<rect width="87.9268" height="29.6711" fill="white"/>
</clipPath>
</defs>
</svg>
