<?xml version="1.0" encoding="utf-8"?>
<!-- Generator: Adobe Illustrator 24.1.1, SVG Export Plug-In . SVG Version: 6.00 Build 0)  -->
<svg version="1.1" id="Layer_1" xmlns="http://www.w3.org/2000/svg" xmlns:xlink="http://www.w3.org/1999/xlink" x="0px" y="0px"
	 width="309.1px" height="314.6px" viewBox="0 0 309.1 314.6" style="enable-background:new 0 0 309.1 314.6;" xml:space="preserve"
	>
<style type="text/css">
	.st0{opacity:0.15;}
	.st1{fill:#FF885D;}
	.st2{fill:#52298A;}
	.st3{fill:#FFC74C;}
	.st4{fill:#FFED77;}
	.st5{fill:none;}
	.st6{fill-rule:evenodd;clip-rule:evenodd;fill:#3C415E;}
	.st7{fill-rule:evenodd;clip-rule:evenodd;fill:#52298A;}
	.st8{fill:#FFD844;}
	.st9{fill:#F6AF00;}
	.st10{fill:url(#SVGID_1_);}
	.st11{fill:#DFE2E2;}
	.st12{fill:#FCCB95;}
	.st13{fill:#FCC072;}
	.st14{fill:#738598;}
	.st15{fill:#FB7668;}
	.st16{fill:#FFE1BD;}
	.st17{fill:#3C415E;}
	.st18{fill:#FFD200;}
	.st19{fill:#FFDA4C;}
	.st20{fill:#00CC62;}
	.st21{fill:#00884C;}
	.st22{fill:#8BFF5D;}
	.st23{fill:#FE7D90;}
	.st24{fill:#FFFFFF;}
</style>
<g>
	<ellipse class="st0" cx="161.3" cy="304.9" rx="134.5" ry="9.7"/>
	<g>
		<g>
			<path class="st1" d="M194.5,126.5c0,0,21.5,19.2,51.7,11.7c30.3-7.5,39.9-35.5,39.9-35.5s-19.9-15.2-51.7-10.9
				C202.7,96.1,194.5,126.5,194.5,126.5z"/>
			<polygon class="st2" points="227.7,93.1 229.7,92.5 220.1,119.3 250.3,111.5 257.4,91.9 259,92.1 252.1,111 285.6,102.3 
				286.1,102.6 285.8,103.8 266.1,108.9 277.4,117.9 276.4,119 264.3,109.4 236.1,116.7 253.6,135.8 251.9,136.5 234.5,117.2 
				195.4,127.3 194.5,126.5 194.6,125.9 218.3,119.8 			"/>
		</g>
		<g>
			<path class="st3" d="M194.3,126.9c0,0,28.1,6.1,50.8-15.2c22.7-21.4,17.3-50.5,17.3-50.5S237.5,57.7,212,77
				S194.3,126.9,194.3,126.9z"/>
			<polygon class="st2" points="206.8,81.5 208.3,80 213,108.1 235.5,86.4 232.1,65.8 233.6,65.2 236.8,85.1 261.8,61 262.4,61.1 
				262.6,62.3 248.1,76.4 262.2,78.7 262,80.2 246.7,77.7 225.8,97.9 250.4,106 249.2,107.4 224.5,99.1 195.5,127.2 194.3,126.9 
				194.1,126.4 211.7,109.4 			"/>
		</g>
		<g>
			<path class="st4" d="M193.3,126.8c0,0,27.3-9.1,35.9-39.1c8.6-30-11-52.3-11-52.3s-23.1,9.7-35.2,39.4S193.3,126.8,193.3,126.8z"
				/>
			<polygon class="st2" points="180.9,81.3 181.4,79.4 199.8,101 208,70.9 194.6,55 195.6,53.7 208.5,69.1 217.7,35.7 218.2,35.4 
				219.1,36.3 213.7,55.9 227.1,50.6 227.6,52 213.2,57.7 205.6,85.8 230.8,80.2 230.5,82 205.1,87.5 194.5,126.4 193.3,126.8 
				192.9,126.4 199.3,102.8 			"/>
		</g>
	</g>
	<g>
		<g>
			<g>
				<g>
					<path class="st5" d="M66.3,141.8l-0.4-0.3l-0.3-0.2l-0.5-0.5c-0.3-0.3-0.7-0.6-1-0.9c-0.7-0.6-1.3-1.2-1.9-1.8
						c-1.3-1.2-2.5-2.5-3.6-3.7c-2.3-2.6-4.5-5.2-6.6-8l16.7-12.2c1.6,2.2,3.3,4.3,5.2,6.3c0.9,1,1.9,2,2.8,2.9
						c0.5,0.5,1,0.9,1.4,1.4l0.7,0.6l0.3,0.3l0.2,0.2L66.3,141.8z"/>
				</g>
				<path class="st6" d="M63.9,123.5l-1.6,1.3c-0.7-0.9-1.5-1.8-2.2-2.7l1.6-1.3C62.4,121.7,63.1,122.6,63.9,123.5z"/>
				<path class="st6" d="M67.9,128.1l-1.5,1.4c-0.8-0.8-1.6-1.7-2.4-2.6l1.6-1.4C66.4,126.4,67.1,127.3,67.9,128.1z"/>
				<path class="st6" d="M72.3,132.4l-1.4,1.5c-0.9-0.8-1.7-1.6-2.6-2.4l1.5-1.5C70.6,130.8,71.5,131.6,72.3,132.4z"/>
			</g>
			<g>
				<g>
					<path class="st5" d="M52,126.3c-2.1-2.8-4-5.8-5.7-8.9c-1.7-3.1-3.3-6.4-4.6-9.8l19.4-7.2c1.8,4.7,4.4,9.4,7.6,13.7L52,126.3z"
						/>
				</g>
				<path class="st6" d="M53.9,108.1L52,109c-0.3-0.5-0.5-1.1-0.7-1.6c-0.2-0.5-0.5-1.1-0.7-1.6l1.9-0.8c0.2,0.5,0.4,1.1,0.7,1.6
					C53.4,107.1,53.7,107.6,53.9,108.1z"/>
				<path class="st6" d="M56.8,113.5l-1.8,1.1c-0.3-0.5-0.6-1-0.9-1.5c-0.3-0.5-0.6-1-0.8-1.5l1.8-1c0.3,0.5,0.5,1,0.8,1.5
					C56.2,112.5,56.5,113,56.8,113.5z"/>
				<polygon class="st6" points="60.1,118.6 58.4,119.8 57.4,118.4 56.4,116.9 58.2,115.8 59.1,117.2 				"/>
			</g>
			<g>
				<g>
					<path class="st5" d="M41.7,107.6c-0.3-0.9-0.6-1.7-0.9-2.6c-0.1-0.4-0.3-0.9-0.4-1.3l-0.4-1.3c-0.3-0.9-0.5-1.9-0.7-2.8
						c-0.1-0.5-0.2-1-0.3-1.5c-0.1-0.5-0.2-1-0.2-1.5l-0.2-1.6c0-0.3-0.1-0.5-0.1-0.8l0-0.8l0-0.8c0-0.3,0-0.6,0-0.8
						c0-0.6,0-1.2,0.1-1.7c0-0.1,0-0.3,0-0.4l0-0.4l0.1-0.9l0.1-0.9c0-0.3,0.1-0.6,0.2-0.9c0.1-0.6,0.2-1.2,0.4-1.8
						c0.2-0.6,0.4-1.2,0.5-1.8l19.6,6.6c0,0.1-0.1,0.3-0.1,0.4c0,0.1-0.1,0.3-0.1,0.5c0,0.1,0,0.1-0.1,0.2c0,0.1,0,0.2,0,0.3
						c0,0.1,0,0.2,0,0.3l0,0.1c0,0,0,0.1,0,0.1c0,0.2,0,0.4,0,0.6c0,0.1,0,0.2,0,0.3l0,0.3l0,0.3c0,0.1,0,0.2,0,0.3
						c0,0.2,0.1,0.5,0.1,0.7c0,0.2,0.1,0.5,0.1,0.8c0,0.3,0.1,0.5,0.1,0.8l0.2,0.8c0,0.1,0.1,0.3,0.1,0.4l0.1,0.4l0.2,0.9
						c0.1,0.3,0.2,0.6,0.3,0.9c0.2,0.6,0.4,1.2,0.6,1.8L41.7,107.6z"/>
				</g>
				<path class="st6" d="M49.5,90.6l-2.1-0.1l0-0.5l0.1-0.5l0.1-0.9c0-0.3,0.1-0.6,0.2-0.9l0.2-0.9l2,0.5l-0.2,0.8
					c-0.1,0.3-0.1,0.5-0.1,0.8l-0.1,0.8l0,0.4L49.5,90.6z"/>
				<path class="st6" d="M50,96.6l-2,0.4c-0.1-0.6-0.2-1.2-0.3-1.8c-0.1-0.6-0.1-1.2-0.2-1.8l2.1-0.1c0,0.6,0.1,1.1,0.2,1.7
					C49.8,95.4,49.9,96,50,96.6z"/>
				<path class="st6" d="M51.6,102.4l-2,0.7l-0.5-1.7c-0.2-0.6-0.3-1.1-0.5-1.7l2-0.5c0.2,0.5,0.3,1.1,0.5,1.6L51.6,102.4z"/>
			</g>
			<g>
				<g>
					<path class="st5" d="M39.9,82.5c0.8-2.4,2-4.7,3.4-6.7c0.3-0.5,0.7-1,1.1-1.5c0.2-0.2,0.4-0.5,0.6-0.7l0.6-0.7l0.6-0.7
						c0.2-0.2,0.4-0.4,0.6-0.6c0.4-0.4,0.8-0.8,1.2-1.2c0.1-0.1,0.2-0.2,0.3-0.3l0.3-0.3l0.6-0.5c0.4-0.3,0.8-0.7,1.3-1l1.3-0.9
						l0.3-0.2l0.3-0.2l0.6-0.4c0.4-0.3,0.8-0.6,1.3-0.8l1.3-0.7l0.6-0.4c0.2-0.1,0.4-0.2,0.6-0.3l1.3-0.6l9.2,18.5l-0.8,0.4
						c-0.1,0.1-0.3,0.1-0.4,0.2l-0.4,0.2l-0.7,0.4c-0.2,0.1-0.5,0.3-0.7,0.4l-0.3,0.2l-0.2,0.1l-0.2,0.1L62.8,85
						c-0.2,0.1-0.4,0.3-0.6,0.4L62,85.6l-0.1,0.1c0,0-0.1,0.1-0.1,0.1c-0.1,0.1-0.3,0.3-0.5,0.4c-0.1,0.1-0.1,0.1-0.2,0.2l-0.2,0.2
						l-0.2,0.2c-0.1,0.1-0.1,0.1-0.2,0.2c-0.1,0.1-0.2,0.3-0.3,0.4c-0.4,0.5-0.6,1-0.8,1.6L39.9,82.5z"/>
				</g>
				<path class="st6" d="M58.7,76.1l-1.1-1.7c1-0.7,2-1.2,3.1-1.8l1,1.8C60.7,74.9,59.7,75.5,58.7,76.1z"/>
				<path class="st6" d="M54.1,79.9l-1.5-1.4c0.2-0.2,0.4-0.4,0.6-0.7l0.7-0.6c0.2-0.2,0.5-0.4,0.7-0.6l0.7-0.6l1.3,1.6l-0.6,0.5
					c-0.2,0.2-0.4,0.3-0.6,0.5l-0.6,0.6C54.5,79.5,54.3,79.7,54.1,79.9z"/>
				<path class="st6" d="M50.8,84.8L48.9,84c0.1-0.3,0.3-0.6,0.4-0.8l0.4-0.8c0.2-0.3,0.3-0.5,0.5-0.8c0.2-0.3,0.3-0.5,0.5-0.8
					l1.7,1.2c-0.2,0.2-0.3,0.5-0.4,0.7c-0.1,0.2-0.3,0.5-0.4,0.7L51.2,84C51.1,84.3,50.9,84.5,50.8,84.8z"/>
			</g>
			<g>
				<g>
					<path class="st5" d="M57.9,63.8c3.4-1.7,6.6-2.9,9.9-4c3.2-1.1,6.5-2,9.6-2.8l5.2,20c-2.8,0.7-5.6,1.5-8.2,2.4
						c-2.6,0.9-5.1,1.9-7.3,3L57.9,63.8z"/>
				</g>
				<path class="st6" d="M75.6,69L75,67c1.1-0.3,2.2-0.6,3.4-0.9l0.5,2C77.8,68.3,76.7,68.6,75.6,69z"/>
				<path class="st6" d="M69.8,70.9l-0.7-1.9l1.7-0.6c0.5-0.2,1.1-0.4,1.7-0.5l0.6,2c-0.5,0.2-1.1,0.3-1.6,0.5L69.8,70.9z"/>
				<path class="st6" d="M64.1,73.2l-0.9-1.9c1.1-0.5,2.2-0.9,3.2-1.4l0.8,1.9C66.2,72.2,65.1,72.7,64.1,73.2z"/>
			</g>
			<g>
				<g>
					<path class="st5" d="M77.5,57c6.4-1.6,12.7-2.9,18.9-4l3.7,20.3c-5.9,1.1-11.8,2.3-17.4,3.7L77.5,57z"/>
				</g>
				<polygon class="st6" points="93.6,64.7 93.2,62.7 94.9,62.4 96.6,62 97,64.1 95.3,64.4 				"/>
				<path class="st6" d="M87.6,66l-0.4-2c1.1-0.3,2.3-0.5,3.4-0.7l0.4,2C89.8,65.5,88.7,65.7,87.6,66z"/>
				<path class="st6" d="M81.6,67.4l-0.5-2c1.1-0.3,2.3-0.5,3.4-0.8l0.5,2C83.8,66.8,82.7,67.1,81.6,67.4z"/>
			</g>
			<g>
				<g>
					<path class="st5" d="M96.4,52.9l4.5-0.8c1.5-0.3,3-0.6,4.5-0.9c1.5-0.3,2.9-0.6,4.4-0.9c1.5-0.3,2.9-0.6,4.4-1l4.6,20.2
						c-1.6,0.4-3.1,0.7-4.7,1c-1.6,0.3-3.1,0.7-4.7,1c-1.6,0.3-3.1,0.6-4.7,0.9l-4.6,0.9L96.4,52.9z"/>
				</g>
				<polygon class="st6" points="111.9,61.2 111.5,59.2 114.8,58.4 115.3,60.5 				"/>
				<polygon class="st6" points="105.8,62.4 105.4,60.4 108.8,59.7 109.2,61.7 				"/>
				<path class="st6" d="M99.7,63.6l-0.4-2c1.1-0.2,2.3-0.4,3.4-0.6l0.4,2C102,63.2,100.9,63.4,99.7,63.6z"/>
			</g>
			<g>
				<g>
					<path class="st5" d="M114.1,49.4c2.9-0.7,5.7-1.4,8.5-2.2c2.7-0.8,5.4-1.6,7.8-2.6l7.7,19.2c-3.4,1.3-6.6,2.4-9.8,3.3
						c-3.2,0.9-6.4,1.7-9.5,2.4L114.1,49.4z"/>
				</g>
				<path class="st6" d="M129.9,56.5l-0.7-2c0.5-0.2,0.3-0.2,0.8-0.4l1.6-0.5l0.8-0.3l0.7,1.9l-0.8,0.3l-0.8,0.3
					C131,56.1,130.5,56.3,129.9,56.5z"/>
				<polygon class="st6" points="124,58.3 123.4,56.3 125.1,55.8 126.7,55.4 127.3,57.3 124.9,58 				"/>
				<path class="st6" d="M118,59.8l-0.5-2c1.1-0.3,2.2-0.5,3.3-0.8l0.5,2C120.2,59.3,119.1,59.6,118,59.8z"/>
			</g>
			<g>
				<g>
					<path class="st5" d="M130.4,44.6c1.2-0.5,2.3-1,3.3-1.5l0.4-0.2l0.2-0.1l0.2-0.1l0.7-0.4c0.1-0.1,0.2-0.1,0.3-0.2l0.3-0.2
						l0.3-0.2c0.1-0.1,0.2-0.1,0.3-0.2l0.3-0.2c0.1-0.1,0.2-0.1,0.2-0.2c0.1-0.1,0.3-0.2,0.4-0.4c0.1-0.1,0.2-0.2,0.3-0.3
						c0,0,0.1-0.1,0.1-0.1l0.1-0.1c0,0,0.1-0.1,0.1-0.1c0.3-0.3,0.3-0.5,0.4-0.7l19.7,6.3c-0.1,0.3-0.2,0.7-0.3,1
						c-0.1,0.3-0.3,0.7-0.4,1c-0.1,0.3-0.3,0.7-0.4,1c-0.2,0.3-0.3,0.6-0.5,0.9c-0.2,0.3-0.4,0.6-0.5,0.9c-0.2,0.3-0.4,0.6-0.6,0.9
						c-0.4,0.6-0.8,1.1-1.2,1.6l-0.6,0.8l-0.3,0.4c-0.1,0.1-0.2,0.2-0.3,0.3c-0.4,0.4-0.9,0.9-1.3,1.3c-0.4,0.4-0.9,0.8-1.3,1.2
						c-0.2,0.2-0.4,0.4-0.7,0.5l-0.7,0.5c-0.2,0.2-0.5,0.3-0.7,0.5l-0.7,0.4l-0.7,0.4c-0.2,0.1-0.4,0.3-0.7,0.4l-1.3,0.8l-0.3,0.2
						l-0.3,0.2l-0.7,0.3c-1.7,0.9-3.4,1.6-5.1,2.3L130.4,44.6z"/>
				</g>
				<path class="st6" d="M145.5,47.5l-0.8-1.5c0.4-0.4,0.6-0.8,0.9-1.2c0.1-0.2,0.3-0.4,0.4-0.7l0.2-0.3c0.1-0.1,0.1-0.2,0.2-0.4
					l1.9,0.9c-0.1,0.1-0.1,0.3-0.2,0.4l-0.2,0.4c-0.2,0.3-0.3,0.5-0.5,0.8C147,46.3,145.9,47,145.5,47.5z"/>
				<path class="st6" d="M141.4,51.4l-1.1-1.7c0.5-0.3,0.2-0.4,0.6-0.7l1.4-0.7c0.2-0.2,0.4-0.3,0.6-0.5l1.4,1.6
					c-0.2,0.2-0.4,0.4-0.7,0.6l-0.7,0.5C142.4,50.8,141.9,51.1,141.4,51.4z"/>
				<path class="st6" d="M135.8,54.3l-0.8-1.9c0.5-0.2,1-0.5,1.5-0.7c0.5-0.2,1-0.5,1.5-0.7l1,1.8c-0.5,0.3-1.8,0.7-2.3,1
					C136.1,54,136.4,54.1,135.8,54.3z"/>
			</g>
			<g>
				<g>
					<path class="st5" d="M138.2,39.5c0.1-0.2,0.1-0.4,0.1-1c0-0.1,0-0.3,0-0.4c0-0.2-0.1-0.4-0.1-0.5c0,0,0-0.1,0-0.1l0-0.2
						l-0.1-0.3l0-0.2l0-0.1l0-0.1c0-0.1,0-0.2-0.1-0.2c-0.1-0.3-0.2-0.5-0.2-0.7c-0.1-0.2-0.1-0.2-0.1-0.2c0,0,0,0,0,0l9.5-18.4
						c2.8,1.4,5.2,3.5,7,6c0.2,0.3,0.4,0.6,0.7,1c0.2,0.3,0.4,0.6,0.6,1c0.2,0.3,0.4,0.6,0.5,0.9c0.2,0.3,0.3,0.6,0.5,0.9
						c0.6,1.3,1,2.5,1.4,3.7l0.2,0.9l0.1,0.2l0,0.2l0.1,0.4l0.2,0.8l0.1,0.4c0,0.1,0.1,0.3,0.1,0.4c0.1,0.6,0.2,1.2,0.3,1.8
						c0.1,0.6,0.1,1.3,0.1,1.9l0,0.5l0,0.5l0,1c0,0.7-0.1,1.4-0.2,2c0,0.3-0.1,0.7-0.1,1c-0.1,0.4-0.1,0.7-0.2,1.1
						c-0.1,0.3-0.1,0.7-0.2,1c-0.1,0.3-0.2,0.7-0.3,1L138.2,39.5z"/>
				</g>
				<path class="st6" d="M146.6,29l-1.7,1.2c-0.6-0.8-2.1-1.3-2.9-1.9l2-1.9C145,27.1,145.9,28,146.6,29z"/>
				<path class="st6" d="M149,35l-2,0.4c-0.2-1.3-0.4-1.9-0.9-3.1l1.9-0.8C148.4,32.7,148.8,33.8,149,35z"/>
				<path class="st6" d="M149.1,41.4l-2-0.4l0.1-0.4l0-0.4c0-0.3,0.1-0.5,0.1-0.8l0-0.8c0-0.1,0-0.3,0-0.4l0-0.4l2.1-0.1l0,0.4
					c0,0.2,0,0.3,0,0.5l-0.8,1.1c0,0.3,0.7,0.4,0.7,0.7l-0.1,0.5L149.1,41.4z"/>
			</g>
			<g>
				<g>
					<path class="st5" d="M137.6,35.5C137.6,35.5,137.6,35.5,137.6,35.5C137.6,35.5,137.6,35.5,137.6,35.5
						C137.6,35.5,137.5,35.5,137.6,35.5c-0.1,0-0.1,0-0.1-0.1c0,0,0,0-0.1,0c-0.2,0-0.4-0.1-0.7-0.1c-0.3,0-0.7-0.1-1.1-0.1
						c-0.4,0-0.9,0-1.4,0.1c-1,0.1-2.1,0.3-3.3,0.5c-1.2,0.3-2.4,0.6-3.7,1L121.3,17c1.7-0.5,3.4-1,5.3-1.4c1.8-0.4,3.8-0.7,5.8-0.9
						c1-0.1,2.1-0.1,3.2-0.1c1.1,0,2.3,0.1,3.5,0.2c1.2,0.1,2.5,0.4,3.9,0.8l0.5,0.1l0.5,0.2c0.3,0.1,0.7,0.2,1,0.4
						c0.4,0.1,0.7,0.3,1,0.4c0.4,0.2,0.7,0.3,1,0.5L137.6,35.5z"/>
				</g>
				<path class="st6" d="M128.7,25l0.4,2c-1.9,0.4-3,0.7-3.3,0.8l-0.6-2C126.5,25.5,127.6,25.2,128.7,25z"/>
				<path class="st6" d="M135,24.2l0.1,2.1c-1.1,0-2.2,0.1-3.3,0.3l-1.1-1.9C131.9,24.5,133.8,24.2,135,24.2z"/>
				<path class="st6" d="M141.3,25.1l-0.7,1.9c-1-0.3-2-0.6-3-0.7l0.2-2.1C138.3,24.3,139.5,24.4,141.3,25.1z"/>
			</g>
			<g>
				<g>
					<path class="st5" d="M127.2,36.8c-2.6,0.8-5.2,1.7-7.9,2.8c-2.7,1.1-5.5,2.2-8.3,3.5l-8.2-19c2.9-1.2,5.8-2.5,8.9-3.7
						c3.1-1.2,6.2-2.4,9.6-3.4L127.2,36.8z"/>
				</g>
				<polygon class="st6" points="111,31 111,33.1 107.9,34.4 107.8,32.3 				"/>
				<path class="st6" d="M116,28.9l1.5,1.8c-1.1,0.4-2.1,0.8-3.2,1.3l-0.8-1.9C114.6,29.5,114.9,29.3,116,28.9z"/>
				<path class="st6" d="M122.6,26.6l-0.1,2.2c-1.1,0.3-1.4,0.5-2.4,0.9l-0.7-1.9C120.4,27.3,121.5,27,122.6,26.6z"/>
			</g>
			<g>
				<g>
					<path class="st5" d="M110.9,43.1l-4.4,1.9l-0.6,0.2l-0.3,0.1l-0.4,0.2c-0.6,0.2-1.1,0.4-1.7,0.6c-0.6,0.2-1.2,0.3-1.8,0.5
						c-0.6,0.2-1.2,0.3-1.8,0.4c-2.5,0.5-5.1,0.6-7.7,0.3c-2.6-0.3-5.1-1-7.3-2l8.1-19c0.6,0.3,1.2,0.4,1.7,0.5c0.5,0.1,1,0,1.5-0.1
						c0.3,0,0.6-0.1,0.9-0.2c0.2-0.1,0.3-0.1,0.5-0.2l0.1,0l0.3-0.1l0.5-0.2l4.2-1.8L110.9,43.1z"/>
				</g>
				<path class="st6" d="M93.8,36.2l-0.2,2.1c-0.3,0-0.6-0.1-0.9-0.1c-0.3,0-1.4,0.1-1.7,0l-0.1-0.4c-0.3-0.1-0.6-0.2-0.9-0.3l0.7-2
					c0.3,0.1,0.5,0.2,0.8,0.2l0.8,0.2c0.3,0.1,0.5,0.1,0.8,0.2C93.3,36.2,93.5,36.2,93.8,36.2z"/>
				<path class="st6" d="M99.6,35.7l0.6,2l-0.9,0.2C99,38,98.7,38,98.4,38.1l-0.5,0.1l-0.2,0l-0.2,0l-0.9,0.1l-0.1-2.1l0.8-0.1
					l0.2,0l-0.6,0.1l1.2-0.3c0.3-0.1,0.5-0.1,0.8-0.2L99.6,35.7z"/>
				<polygon class="st6" points="105.3,33.4 105.3,35.5 102.1,36.9 102.1,34.8 				"/>
			</g>
			<g>
				<g>
					<path class="st5" d="M85,45.3c-2.2-1-4.2-2.1-6-3.4c-1.8-1.3-3.4-2.7-4.8-4.2c-1.4-1.5-2.7-3-3.9-4.6c-0.6-0.8-1.2-1.6-1.7-2.4
						c-0.1-0.2-0.3-0.4-0.4-0.6c-0.1-0.2-0.3-0.4-0.4-0.7c-0.1-0.2-0.3-0.5-0.4-0.7l-0.2-0.4L67,28.1l-0.2-0.3l18.3-9.7l0-0.1l0,0
						l0,0l0.1,0.1l0.2,0.3c0.1,0.1,0.1,0.2,0.2,0.3c0.1,0.1,0.1,0.2,0.2,0.3c0.3,0.5,0.6,0.9,1,1.4c0.7,0.9,1.4,1.7,2.1,2.5
						c1.5,1.5,3,2.6,4.2,3.1L85,45.3z"/>
				</g>
				<path class="st7" d="M79.2,26.6l-1.6,1.3c-0.7-0.9-2.2-1.7-2.8-2.8l2.5-1.3C77.9,24.8,78.5,25.7,79.2,26.6z"/>
				<path class="st6" d="M83.3,31.1l-1.4,1.5c-0.9-0.8-1.7-1.7-2.5-2.6l1.5-1.4C81.6,29.4,82,29.9,83.3,31.1z"/>
				<path class="st6" d="M88.1,34.5l-0.9,1.8c-1.1-0.6-2.1-1.2-3.1-1.9l1.2-1.7C86,33.2,86.6,33.7,88.1,34.5z"/>
			</g>
		</g>
		<g>
			<path class="st8" d="M84.1,9.1l-4.8,7.3l-36.9-5.6L84.1,9.1z"/>
			<path class="st9" d="M79.6,30.1l-0.3-13.8l-36.9-5.6l32.4,12L79.6,30.1z"/>
			<path class="st8" d="M66.5,33.7l8.3-11l-32.4-12L66.5,33.7z"/>
		</g>
	</g>
	<g>
		<linearGradient id="SVGID_1_" gradientUnits="userSpaceOnUse" x1="55.7404" y1="184.3992" x2="235.045" y2="184.3992">
			<stop  offset="0" style="stop-color:#738598"/>
			<stop  offset="1" style="stop-color:#3C415E"/>
		</linearGradient>
		<path class="st10" d="M235,153.8c0,74.1-89.7,150.9-89.7,150.9s-89.7-81.9-89.7-150.9c0-49.5,40.1-89.7,89.7-89.7
			S235,104.3,235,153.8z"/>
		
			<ellipse transform="matrix(9.853760e-02 -0.9951 0.9951 9.853760e-02 -19.8376 281.3844)" class="st11" cx="145.4" cy="151.6" rx="40.1" ry="40.1"/>
	</g>
	<g>
		<path class="st12" d="M253.5,215.5c-0.2,0.1-0.8-3.9-0.8-3.9h-5.4v4L253.5,215.5z"/>
		<path class="st13" d="M229,187.7c0,0-2.8,2-3.4,6.6C225.6,194.3,230,195.3,229,187.7z"/>
		<path class="st14" d="M257.1,246l-2.4,21.1l10.8,31.7h-5.4l-12.5-27c-0.5-1-0.7-2.1-0.7-3.1l-1-8.2l-2.2,9.2l1.2,29.1h-4.8
			l-5.8-31.7c-0.3-1.4-0.2-2.9,0.3-4.3l5.7-16.7H257.1z"/>
		<path class="st15" d="M259.3,246h-20.3l2.2-22.1l-8.6-3.8l5.4-7l13.8,1.9c3.7,0.5,6.5,3.6,6.7,7.4L259.3,246z"/>
		<path class="st16" d="M248.9,212.1c0,0-2.8-1.4-3.8-2.6s1.4-7,3.8-8.4c2.4-1.4,6.4-1.6,6.4,0.8c0,2.4,2,6.4,0,7.4
			C253.3,210.3,252.7,212.3,248.9,212.1z"/>
		<path class="st17" d="M250.3,202.3c0,0-3.2-4-1.2-8c0,0,0.8,2,3.4,2.6c2.6,0.6,5.6,1.2,6.6,4c1.6,4.4,1.7,9.4-7,10.6
			c0,0,3.6-3.2,2.8-5.4C254.1,203.9,251.7,203.5,250.3,202.3z"/>
		<path class="st18" d="M248.5,201.1L229,187.7c0,0-1,5.4-3.4,6.6L248.5,201.1z"/>
		<g>
			<path class="st16" d="M228,214.7l1.6-18.9l0,0c0,0,0-0.1,0-0.1l0-0.1l0,0c0.5-3.2,1.9-3.9,2.4-3.9c0.6,0,1.6,0.8,1.8,2
				c0.2,1.1-1.1,3.1-1.3,3.3l0.1,15.1l5.4,1l-4.8,6.2l-2.7-0.9C228.9,217.9,227.9,216.4,228,214.7z"/>
			<polygon class="st16" points="241.9,198.9 242.8,213.8 238.1,213.1 238.8,198.2 			"/>
		</g>
		<path class="st17" d="M265.5,298.8h-5.4l-5.4,4.2c-0.7,0.5-0.3,1.6,0.6,1.6h9.3c0.5,0,0.9-0.4,0.9-0.9V298.8z"/>
		<path class="st17" d="M244.9,298.8h-4.8l-5.9,4.2c-0.7,0.5-0.4,1.6,0.5,1.6h9.3c0.5,0,0.9-0.4,0.9-0.9V298.8z"/>
	</g>
	<g>
		<g>
			<path class="st19" d="M76.3,250.6c-1.2,1.5-1.4,3.8-1.6,5.6c0,0.2,0,0.6-0.1,1.1c-0.3-1-0.6-1.9-0.9-2.9
				c-0.2-0.6-0.4-1.3-0.6-1.9c0.3-0.4,0.7-1.4,1.4-2.3c0.9-1.1,1.6-1.3,1.4-3c-0.2-1.5-1.5-2.9-2.7-1.4c-1,1.2-0.9,3.1-0.7,4.7
				c-0.6-2-1.3-4-2.4-5.8c0.4-5.6-4.7-11.5-9.5-13.5c-0.5-0.2-1-0.4-1.5-0.3c-1.1,0.3-1.3,1.7-1,2.7c0.5,1.5,1.5,2.6,2.7,3.6
				c1.2,0.9,2.6,1.6,3.8,2.5c1.1,0.7,1.9,1.6,2.8,2.4c0,0,0,0,0,0.1c1.3,1.7,2.2,3.6,2.9,5.6c-0.8-1-2.2-2.2-2.7-2.6
				c-1.5-1.2-3.4-2.1-5.4-2.1c-0.4,0-0.8,0-1,0.3c-0.3,0.4-0.1,0.9,0.1,1.3c0.7,1.4,2,2.6,3.5,3.2c1.9,0.7,4.1,0.8,6,1.4
				c0,0,0,0,0-0.1c0.4,1.2,0.7,2.4,1,3.6c-1.2-1.2-3-2.2-3.9-2.5c-0.7-0.3-1.5-0.4-2.2-0.3c-0.7,0.2-1.4,0.8-1.4,1.5
				c0,0.4,0.2,0.9,0.4,1.2c0.8,1.1,2.3,1.5,3.7,1.8c1.4,0.3,2.7,0.6,4.1,0.9c0,0.1,0.1,0.3,0.1,0.4c0.6,2.1,1.2,4.1,1.9,6.2
				c-0.7-1-1.5-1.9-2.4-2.7c-1.8-1.7-3.9-3.1-6.3-3.7c-0.9-0.2-2-0.3-2.9,0c-0.4,0.1-0.7,0.4-0.8,0.8c0,0.2,0,0.4,0.1,0.6
				c0.5,1.2,1.7,2,2.9,2.6c1.9,0.9,4,1.2,6,1.7c1.2,0.3,2.5,0.7,3.5,1.4c0.7,2.1,1.4,4.2,2.2,6.3c-1.3-1.9-3.4-3.7-5-5
				c-1.5-1.2-3.5-2.2-5.3-1.5c-0.3,0.1-0.5,0.2-0.7,0.4c-0.6,0.6-0.3,1.7,0.2,2.4c0.7,0.9,1.8,1.4,2.9,1.7c1.1,0.3,2.2,0.4,3.3,0.7
				c2,0.5,3.5,1.5,5.1,2.6c0.6,1.6,1.3,3.2,2,4.8c-0.8-0.8-1.7-1.5-2.2-1.8c-1.6-1.2-3.4-2-5.3-2.4c-0.6-0.1-1.4-0.2-1.9,0.3
				c-0.4,0.4-0.4,1.1-0.3,1.6c0.3,1.4,1.4,2.7,2.8,3.2c0.9,0.4,1.9,0.4,2.8,0.5c1,0.1,2,0.2,3,0.2c0.8,0.1,1.5,0.2,2.1,0.5
				c0.8,1.7,1.6,3.5,2.5,5.2c-0.6-0.6-1.1-1.1-1.8-1.6c-1.4-1.1-3.1-1.9-4.9-2c-0.6,0-1.3,0-1.7,0.5c-0.6,0.6-0.5,1.7,0.1,2.4
				c0.6,0.6,1.5,0.9,2.4,1c0.8,0.1,1.6,0.1,2.4,0c0.6-0.1,1.2-0.2,1.7-0.2c0.7,0.1,1.4,0.4,2,0.8c0.1,0.1,0.3,0.1,0.4,0.2
				c0.7,1.3,1.4,2.7,2.2,4c-1.4-0.9-3.1-1.3-4.6-1.4c-1,0-2.1,0.3-2.4,1.2c-0.1,0.3-0.1,0.6,0,0.9c0.4,1,1.6,1.5,2.7,1.4
				c1.1-0.1,2.1-0.6,3.2-0.7c0.6-0.1,1.4,0.2,2,0.2c1.3,2,2.7,4,4.2,5.8c0.5,0.5,1.2-0.1,0.8-0.7c-1-1.6-1.9-3.1-2.9-4.6
				c0.8-0.5,3.1-3.1,3.5-3.5c0.6-0.6,1.1-1.6,0.7-2.3c-0.4-0.8-1.4-1-2.2-0.7c-0.8,0.3-1.4,1-1.8,1.7c-0.2,0.4-0.9,2.4-0.9,3.7
				c-1-1.6-1.9-3.2-2.9-4.8c0.3-0.5,0.5-1,0.9-1.4c0.6-0.7,1.3-1.1,1.9-1.8c0.6-0.7,0.9-1.7,0.5-2.4c-0.5-0.9-1.9-0.9-2.7-0.3
				c-0.8,0.6-1.2,1.7-1.3,2.8c-0.1,0.3-0.1,0.8-0.2,1.3c-0.1-0.1-0.1-0.3-0.2-0.4c-0.4-0.7-0.7-1.5-1.1-2.2c0.8-0.8,1.3-2.4,2-3.4
				c0.6-1,1.3-1.9,1.4-3.1c0.1-1.1-0.6-2.4-1.8-2.5c-1,0-1.8,1-2.1,1.9c-0.4,1-0.7,3.1-0.5,4.8c-0.7-1.6-1.4-3.2-2.1-4.8
				c0.8-1.8,3.4-3.2,3.9-5.4c0.2-0.9-0.1-2.4-1.2-2.6c-0.9-0.2-1.7,1.1-2.2,1.7c-0.8,1.1-1.3,2.6-1.4,4.2c-0.3-0.6-0.5-1.3-0.8-1.9
				c-0.3-0.8-0.6-1.7-0.9-2.5c0.3-0.7,1-1.8,1.8-2.7c1-1.2,2.4-2.3,1.8-4.1c-0.5-1.7-2.6-3.5-3.7-1.4c-0.6,1.2-1,3.4-0.9,5.4
				c-0.6-1.6-1.1-3.3-1.6-4.9c0.7-0.9,1.1-1.9,2.5-3.1c1.1-0.9,3.1-1.7,2.7-3.4C79.7,249.6,77.6,249.1,76.3,250.6z"/>
			<path class="st19" d="M127.9,259.4c-1.9-0.5-4,0.4-5.8,0.9c-0.2,0.1-0.6,0.2-1,0.4c0.8-0.7,1.5-1.4,2.3-2c0.5-0.4,1-0.9,1.5-1.3
				c0.5,0.1,1.5,0.1,2.7,0.3c1.4,0.3,1.9,0.9,3.3,0c1.3-0.9,2-2.5,0.2-3c-1.6-0.4-3.2,0.5-4.6,1.4c1.6-1.4,3.1-2.9,4.3-4.6
				c5.2-1.9,8.4-9.1,8.3-14.3c0-0.5-0.1-1-0.4-1.4c-0.7-0.9-2.1-0.5-2.9,0.3c-1.1,1-1.8,2.5-2.1,4c-0.3,1.5-0.4,3-0.7,4.5
				c-0.2,1.3-0.6,2.4-1,3.6c0,0,0,0,0,0.1c-1,1.8-2.3,3.4-3.8,4.9c0.6-1.1,1.1-2.9,1.2-3.6c0.5-1.9,0.4-4-0.4-5.8
				c-0.1-0.3-0.4-0.7-0.7-0.8c-0.4-0.1-0.9,0.2-1.2,0.6c-1,1.2-1.5,2.9-1.4,4.5c0.1,2.1,1,4,1.2,6.1c0,0,0.1,0,0.1,0
				c-0.9,0.8-1.9,1.6-2.8,2.4c0.5-1.6,0.7-3.6,0.7-4.6c-0.1-0.7-0.2-1.5-0.7-2.1c-0.5-0.6-1.3-0.9-2-0.7c-0.4,0.2-0.7,0.5-0.9,0.9
				c-0.7,1.2-0.4,2.7-0.1,4.1c0.3,1.3,0.6,2.7,0.9,4.1c-0.1,0.1-0.2,0.2-0.3,0.3c-1.6,1.4-3.2,2.9-4.8,4.3c0.6-1.1,1.1-2.2,1.5-3.3
				c0.8-2.3,1.2-4.8,0.7-7.2c-0.2-1-0.5-1.9-1.2-2.6c-0.3-0.3-0.6-0.5-1-0.4c-0.2,0.1-0.4,0.2-0.5,0.4c-0.9,1-1.1,2.4-1.1,3.7
				c0,2.1,0.6,4.1,1,6.2c0.2,1.2,0.4,2.5,0.2,3.8c-1.6,1.5-3.3,3.1-4.8,4.7c1.2-2,2-4.7,2.4-6.6c0.4-1.9,0.5-4.1-0.9-5.5
				c-0.2-0.2-0.4-0.4-0.7-0.5c-0.8-0.3-1.7,0.4-2.1,1.2c-0.5,1-0.5,2.2-0.3,3.3c0.2,1.1,0.6,2.2,0.8,3.3c0.4,2,0.2,3.8-0.3,5.7
				c-1.2,1.2-2.4,2.5-3.5,3.8c0.4-1,0.6-2.2,0.8-2.8c0.4-1.9,0.4-3.9-0.1-5.8c-0.2-0.6-0.4-1.4-1.1-1.6c-0.5-0.2-1.1,0.1-1.6,0.4
				c-1.2,0.9-1.9,2.4-1.8,3.9c0,1,0.4,1.9,0.7,2.8c0.3,0.9,0.7,1.9,1,2.8c0.3,0.7,0.4,1.4,0.4,2.2c-1.2,1.5-2.5,2.9-3.6,4.5
				c0.3-0.7,0.5-1.5,0.7-2.3c0.4-1.7,0.4-3.6-0.2-5.3c-0.2-0.6-0.6-1.2-1.1-1.4c-0.8-0.3-1.8,0.3-2.1,1.1c-0.3,0.8-0.2,1.7,0,2.6
				c0.2,0.8,0.6,1.5,1,2.2c0.3,0.5,0.7,1,0.9,1.5c0.2,0.7,0.2,1.4,0.1,2.1c0,0.1,0,0.3,0,0.4c-0.9,1.2-1.8,2.4-2.7,3.7
				c0.2-1.6-0.1-3.4-0.7-4.8c-0.4-0.9-1.1-1.8-2.1-1.6c-0.3,0-0.6,0.2-0.8,0.4c-0.8,0.8-0.6,2.1-0.1,3c0.5,0.9,1.4,1.7,2,2.6
				c0.3,0.5,0.4,1.3,0.7,1.9c-1.3,2-2.5,4.1-3.5,6.3c-0.3,0.6,0.6,1,0.9,0.5c1-1.5,2-3,3-4.6c0.8,0.5,4.1,1.6,4.6,1.8
				c0.8,0.3,1.9,0.3,2.4-0.3c0.5-0.6,0.4-1.7-0.2-2.3c-0.6-0.6-1.5-0.8-2.3-0.9c-0.5,0-2.6,0.2-3.8,0.7c1-1.6,2.1-3.1,3.2-4.6
				c0.5,0,1.1,0,1.6,0.2c0.8,0.3,1.6,0.7,2.4,1c0.8,0.2,1.9,0.1,2.4-0.6c0.6-0.9,0.1-2.1-0.9-2.6c-0.9-0.5-2.1-0.3-3.1-0.1
				c-0.3,0.1-0.8,0.2-1.2,0.4c0.1-0.1,0.2-0.2,0.3-0.4c0.5-0.7,1-1.3,1.6-1.9c1.1,0.4,2.7,0.2,3.9,0.4c1.1,0.2,2.3,0.4,3.4,0
				c1.1-0.4,2-1.6,1.5-2.6c-0.4-0.9-1.6-1.2-2.7-1.1c-1.1,0.1-3.1,0.6-4.6,1.5c1.1-1.3,2.3-2.7,3.5-4c2,0,4.4,1.8,6.5,1.3
				c0.9-0.2,2.2-1.1,1.9-2.2c-0.2-0.9-1.7-1.1-2.4-1.3c-1.3-0.3-2.9-0.1-4.4,0.5c0.5-0.5,1-1,1.4-1.5c0.6-0.6,1.3-1.3,1.9-1.9
				c0.8,0,2.1,0.2,3.2,0.5c1.5,0.4,3.1,1.2,4.5-0.1c1.3-1.2,2.1-3.8-0.3-3.9c-1.3-0.1-3.5,0.5-5.3,1.4c1.2-1.2,2.5-2.4,3.8-3.5
				c1.2,0.3,2.2,0.2,3.8,1c1.3,0.6,2.8,2.1,4.2,1.1C130.3,262,129.8,259.9,127.9,259.4z"/>
			<path class="st19" d="M104.6,224.5c-2.6,1-4.7,4.5-5.3,7.7c-0.2-1.1-0.5-2.3-0.8-3.4c0-0.2-0.1-0.4-0.1-0.6
				c1.4-2.5,6-7.8,3.5-10.9c-3,1-3.9,4.3-4.1,6.9c0,0.3-0.1,0.8-0.1,1.3c-0.5-1.7-1-3.4-1.6-5.2c0.7-0.8,1.7-2,2.4-3.3
				c0.5-0.9,2-4.9-0.8-3.9c-1.1,0.4-2,3.3-2.2,5.4c-0.5-1.2-0.9-2.4-1.5-3.6c-0.6-6.3,0.7-14.5-5.7-18.3c-6.5-3.9-4.2,6.4-2.8,8.9
				c1.2,2.2,4.1,7.2,7.4,9.8c0.5,1.3,1,2.6,1.4,3.9c0.2,0.7,0.5,1.5,0.7,2.2c-2.3-4.1-7-12.2-10.1-8.7c-2.7,3.1,7.2,7.5,10.4,10
				c0.6,2.2,1.2,4.4,1.7,6.7c0.1,0.6,0.2,1.2,0.3,1.8c-1.1-1.7-1.8-4.2-3.4-5.5c-1.4-1.2-5-2.6-5.5-0.2c-0.6,3.3,4.2,4.6,6.4,5.6
				c1.6,0.7,2.2,1.6,2.7,1.5c0.5,2.8,0.9,5.7,1.1,8.6c-1.3-3.6-4-9-8.7-8.2c-0.7,6,5.8,6.2,8.7,9c0.2,2.9,0.3,5.9,0.2,8.9
				c0,0,0,0.1,0,0.1c-0.7-2.8-1.2-5.7-3.2-8.1c-1.8-2.2-5.8-3.6-4.9,0.7c0.7,3.1,3.5,4.6,5.8,6.5c1,0.9,1.7,1.9,2.2,2.4
				c-0.2,2.8-0.5,5.5-0.9,8.2c-1.5-4.8-4.9-14.6-10.1-11.9c-0.6,5.7,6.5,8.9,9.9,12.9c-0.4,2.5-0.9,4.9-1.5,7.4
				c-0.2-2.1-0.9-4.1-1.5-6.2c-0.5-1.5-3.6-6.2-6-3.5c-2.3,2.7,2.9,6.2,4.4,7.4c1.4,1.2,2.2,2.5,2.7,3.9c-0.1,0.5-0.2,0.9-0.3,1.4
				c-0.6,2.3-1.2,4.7-1.8,7c-0.4-4.3-0.2-12.2-6-11.7c-0.6,3.2,1.6,8.3,3.8,10.7c0.7,0.8,1.4,1.5,2,2c-0.3,1.4-0.6,2.7-0.8,4.1
				c-1.6-4.2-5.7-8.9-7.5-6.6c-1.8,2.3,1.7,6,3.2,7.3c1.4,1.1,2.9,2,3.8,3c-0.2,1.6-0.3,3.3-0.2,4.9c0,1.2,1.9,1.1,2-0.1
				c0.1-2.3,0.4-4.5,0.8-6.8c2.9-1.1,8.8-0.1,10.8-1.3c2.8-1.6,2.5-4.5-0.8-5.1c-2.9-0.6-7.2,1.6-9.7,4.4c0.4-1.9,0.8-3.9,1.2-5.8
				c2.4-1.6,5.9-0.4,8.4-2.6c2.6-2.3,0.9-5.6-2.5-4.5c-1.6,0.5-3.7,2.2-5.3,4.2c0.3-1.4,0.7-2.7,1-4.1c0.3-1.2,0.6-2.4,0.8-3.6
				c2.7-1.1,7.8-0.1,9-4c0.8-2.7-1.6-5.1-4.2-3.2c-1.3,1-2.9,2.7-4.2,4.5c0.4-2.2,0.8-4.5,1.1-6.7c3-1.6,8.9,0,10.7-3.8
				c1.5-3-2.5-4.4-5-3.2c-2.5,1.2-4.1,3.8-5.6,6.1c0.2-1.7,0.3-3.3,0.4-5c2.3-1.7,6.7-2.4,8.1-5.6c1.3-3.1-0.7-7-4.3-4.3
				c-1.9,1.5-3,4-3.7,6.6c0-1.9-0.1-3.7-0.2-5.6c0.6-0.9,1.5-2.1,2.5-3.2c1.2-1.3,2.9-2.4,3-4.2c0.2-3.2-2.4-2-3.9-0.1
				c-1,1.3-1.6,3.2-1.9,5c-0.2-2.1-0.5-4.2-0.9-6.2C101.4,231.8,108.5,228.8,104.6,224.5z"/>
		</g>
		<g>
			<g>
				<path class="st20" d="M104.2,304.7c0,0,9-14.1,3.9-34.1c0,0-14.8,3.3-19.7,34.1H104.2z"/>
				<path class="st21" d="M97.5,304.7c0,0,3.9-18.5,6-22.2c0,0-6.5,11.7-7.4,22.2H97.5z"/>
			</g>
			<g>
				<path class="st20" d="M79.2,304.9c0,0-9-14.1-3.9-34.1c0,0,14.8,3.3,19.7,34.1H79.2z"/>
				<path class="st21" d="M86,304.9c0,0-3.9-18.5-6-22.2c0,0,6.5,11.7,7.4,22.2H86z"/>
			</g>
			<g>
				<path class="st22" d="M62.2,304.9c0,0-11.6-18.1-5-43.9c0,0,19,4.2,25.4,43.9H62.2z"/>
				<path class="st21" d="M70.8,304.9c0,0-5-23.8-7.7-28.6c0,0,8.4,15.1,9.6,28.6H70.8z"/>
			</g>
			<g>
				<path class="st22" d="M124.7,304.9c0,0,11.6-18.1,5-43.9c0,0-19,4.2-25.4,43.9H124.7z"/>
				<path class="st21" d="M116.1,304.9c0,0,5-23.8,7.7-28.6c0,0-8.4,15.1-9.6,28.6H116.1z"/>
			</g>
		</g>
	</g>
	<g>
		<g>
			<path class="st23" d="M191.8,33.5c-0.5,3.4-3.7,5.8-7.2,5.3c-3.4-0.5-5.8-3.7-5.3-7.2c0.5-3.4,3.7-5.8,7.2-5.3
				C189.9,26.8,192.3,30,191.8,33.5z"/>
		</g>
		<g>
			<path class="st24" d="M184.5,35.7c-0.1,0-0.1-0.1-0.2-0.2l-2.1-2.8c-0.2-0.3-0.2-0.7,0.1-0.9c0.3-0.2,0.7-0.2,0.9,0.1l1.6,2.1
				l3.4-3.4c0.3-0.3,0.7-0.3,0.9,0c0.3,0.3,0.3,0.7,0,0.9l-3.9,3.9c-0.1,0.1-0.3,0.2-0.5,0.2C184.7,35.8,184.6,35.8,184.5,35.7z"/>
		</g>
	</g>
	<g>
		<g>
			<path class="st23" d="M6.2,96.9c-0.3,1.7-1.9,2.9-3.6,2.6C1,99.3-0.2,97.7,0,96c0.3-1.7,1.9-2.9,3.6-2.6
				C5.3,93.6,6.5,95.2,6.2,96.9z"/>
		</g>
		<g>
			<path class="st24" d="M2.6,98C2.6,98,2.6,98,2.6,98l-1.1-1.5c-0.1-0.1-0.1-0.4,0.1-0.5C1.7,96,1.9,96,2,96.2l0.8,1.1l1.7-1.7
				c0.1-0.1,0.3-0.1,0.5,0c0.1,0.1,0.1,0.3,0,0.5l-2,2c-0.1,0.1-0.2,0.1-0.3,0.1C2.7,98.1,2.7,98.1,2.6,98z"/>
		</g>
	</g>
	<g>
		<g>
			<path class="st23" d="M309,255.6c-0.3,1.7-1.9,2.9-3.6,2.6c-1.7-0.3-2.9-1.9-2.6-3.6c0.3-1.7,1.9-2.9,3.6-2.6
				C308.1,252.2,309.3,253.8,309,255.6z"/>
		</g>
		<g>
			<path class="st24" d="M305.4,256.7C305.4,256.7,305.4,256.6,305.4,256.7l-1.1-1.5c-0.1-0.1-0.1-0.4,0.1-0.5
				c0.1-0.1,0.4-0.1,0.5,0.1l0.8,1.1l1.7-1.7c0.1-0.1,0.3-0.1,0.5,0c0.1,0.1,0.1,0.3,0,0.5l-2,2c-0.1,0.1-0.2,0.1-0.3,0.1
				C305.5,256.7,305.5,256.7,305.4,256.7z"/>
		</g>
	</g>
	<g>
		<g>
			<g>
				<path class="st23" d="M32.6,200.2c-0.7,0-1.3-0.6-1.3-1.3v-9.1c0-0.7,0.6-1.3,1.3-1.3c0.7,0,1.3,0.6,1.3,1.3v9.1
					C33.9,199.6,33.3,200.2,32.6,200.2z"/>
			</g>
		</g>
		<g>
			<g>
				<path class="st23" d="M37.2,195.6H28c-0.7,0-1.3-0.6-1.3-1.3c0-0.7,0.6-1.3,1.3-1.3h9.1c0.7,0,1.3,0.6,1.3,1.3
					C38.5,195,37.9,195.6,37.2,195.6z"/>
			</g>
		</g>
	</g>
	<g>
		<g>
			<g>
				<path class="st23" d="M267.6,172c-0.4,0-0.6-0.3-0.6-0.6v-4.5c0-0.4,0.3-0.6,0.6-0.6c0.4,0,0.6,0.3,0.6,0.6v4.5
					C268.2,171.7,267.9,172,267.6,172z"/>
			</g>
		</g>
		<g>
			<g>
				<path class="st23" d="M269.8,169.7h-4.5c-0.4,0-0.6-0.3-0.6-0.6c0-0.4,0.3-0.6,0.6-0.6h4.5c0.4,0,0.6,0.3,0.6,0.6
					C270.4,169.4,270.2,169.7,269.8,169.7z"/>
			</g>
		</g>
	</g>
	<g>
		<g>
			<g>
				<path class="st23" d="M18.9,5.7c-0.4,0-0.6-0.3-0.6-0.6V0.6c0-0.4,0.3-0.6,0.6-0.6c0.4,0,0.6,0.3,0.6,0.6v4.5
					C19.5,5.5,19.2,5.7,18.9,5.7z"/>
			</g>
		</g>
		<g>
			<g>
				<path class="st23" d="M21.1,3.5h-4.5c-0.4,0-0.6-0.3-0.6-0.6c0-0.4,0.3-0.6,0.6-0.6h4.5c0.4,0,0.6,0.3,0.6,0.6
					C21.7,3.2,21.5,3.5,21.1,3.5z"/>
			</g>
		</g>
	</g>
</g>
</svg>
