<svg width="411" height="38" viewBox="0 0 411 38" fill="none" xmlns="http://www.w3.org/2000/svg">
<g clip-path="url(#clip0_1832_165)">
<path d="M408 1H352C350.895 1 350 1.89543 350 3V35C350 36.1046 350.895 37 352 37H408C409.105 37 410 36.1046 410 35V3C410 1.89543 409.105 1 408 1Z" stroke="#E6E6E6"/>
<path d="M400.746 14L403 18.117L398.262 22.2417L400.746 14Z" fill="#2B8B4B"/>
<path d="M399.168 14L401.422 18.117L396.684 22.2417L399.168 14Z" fill="#F47920"/>
<path d="M368.017 21.9657C368.24 21.8047 368.385 21.613 368.454 21.383L369.206 18.9143C369.275 18.692 369.244 18.5003 369.114 18.347C368.983 18.1937 368.799 18.117 368.546 18.117C368.792 18.117 369.029 18.0403 369.252 17.8793C369.474 17.726 369.62 17.5343 369.681 17.3043L370.432 14.8357C370.501 14.598 370.478 14.3987 370.356 14.2377C370.233 14.0767 370.041 14 369.788 14H360.021L357.537 22.1803H367.312C367.557 22.2033 367.795 22.1267 368.017 21.9657ZM361.309 15.6177H365.978H367.442H367.749C367.925 15.656 368.071 15.7633 368.155 15.909C368.186 16.0087 368.201 16.116 368.201 16.2233C368.201 16.2847 368.194 16.3383 368.186 16.392L368.171 16.4457L368.109 16.6527C367.941 17.013 367.58 17.2737 367.143 17.3197H366.844H360.795L361.309 15.6177ZM367.105 19.98C366.929 20.3173 366.584 20.555 366.162 20.6087H365.855H359.799L360.312 18.922H364.981H366.423H366.737C366.975 18.9757 367.151 19.1443 367.205 19.359C367.212 19.405 367.22 19.4587 367.22 19.5047C367.22 19.5277 367.22 19.5583 367.212 19.5813V19.612L367.105 19.98ZM382.431 14.0307L379.993 22.188H378.237L379.218 18.9143H372.165L371.184 22.188H369.436L371.874 14.0307H373.629L372.648 17.3197H379.701L380.683 14.0307H382.431ZM382.944 22.211H381.181L383.634 14.0613H385.398L382.944 22.211ZM397.672 14.046L396.944 16.4687L395.234 22.1727H393.478L394.636 18.278L390.005 22.1803L387.207 17.772L385.888 22.1727H384.133L386.019 15.8937L386.571 14.0383H386.601L387.782 15.84L390.335 19.7423L397.672 14.046Z" fill="#6D6E71"/>
<path d="M357 24.3978L357.314 23.1942H357.667C357.767 23.1942 357.843 23.1942 357.882 23.2095C357.928 23.2172 357.966 23.2325 357.989 23.2555C358.027 23.2862 358.05 23.3168 358.058 23.3628C358.073 23.4088 358.073 23.4548 358.058 23.5085C358.043 23.5698 358.012 23.6235 357.966 23.6695C357.92 23.7155 357.866 23.7462 357.797 23.7615C357.874 23.7692 357.928 23.8075 357.966 23.8612C357.997 23.9148 358.004 23.9838 357.981 24.0605C357.966 24.1065 357.951 24.1525 357.912 24.1985C357.882 24.2445 357.843 24.2828 357.797 24.3135C357.751 24.3442 357.698 24.3672 357.636 24.3825C357.575 24.3978 357.483 24.4055 357.345 24.4055H357V24.3978ZM357.261 24.2368H357.337C357.414 24.2368 357.475 24.2368 357.514 24.2292C357.552 24.2215 357.59 24.2138 357.613 24.1985C357.644 24.1832 357.675 24.1602 357.698 24.1372C357.721 24.1065 357.736 24.0835 357.744 24.0452C357.751 24.0068 357.751 23.9762 357.744 23.9455C357.736 23.9148 357.713 23.8918 357.682 23.8765C357.659 23.8688 357.636 23.8612 357.613 23.8535C357.583 23.8535 357.552 23.8458 357.506 23.8458H357.437H357.36L357.261 24.2368ZM357.399 23.7002H357.483C357.59 23.7002 357.667 23.6848 357.721 23.6618C357.774 23.6388 357.805 23.5928 357.82 23.5315C357.836 23.4625 357.828 23.4165 357.797 23.3935C357.759 23.3705 357.69 23.3552 357.575 23.3552H357.491L357.399 23.7002ZM358.932 24.3978L359.085 23.8152H359.768L359.614 24.3978H359.837L360.151 23.1942H359.929L359.814 23.6388H359.131L359.246 23.1942H359.024L358.71 24.3978H358.932ZM361.669 24.3978L361.592 24.0835H361.04L360.803 24.3978H360.565L361.562 23.1405L361.907 24.3978H361.669ZM361.163 23.9225H361.554L361.485 23.6465C361.485 23.6312 361.477 23.6082 361.477 23.5852C361.477 23.5622 361.47 23.5392 361.47 23.5085C361.454 23.5315 361.439 23.5622 361.424 23.5852C361.408 23.6082 361.393 23.6312 361.378 23.6465L361.163 23.9225ZM362.972 23.8612L362.834 24.3978H362.62L362.934 23.1942H363.248C363.34 23.1942 363.409 23.2018 363.463 23.2095C363.509 23.2172 363.547 23.2402 363.578 23.2632C363.616 23.2938 363.639 23.3322 363.647 23.3782C363.655 23.4242 363.655 23.4778 363.639 23.5315C363.616 23.6312 363.57 23.7002 363.501 23.7615C363.432 23.8152 363.348 23.8535 363.241 23.8612L363.578 24.4132H363.325L363.003 23.8765H362.972V23.8612ZM363.026 23.7078H363.064C363.179 23.7078 363.264 23.6925 363.31 23.6695C363.356 23.6465 363.386 23.6005 363.402 23.5392C363.417 23.4702 363.409 23.4242 363.379 23.4012C363.34 23.3705 363.271 23.3628 363.156 23.3628H363.118L363.026 23.7078ZM365.211 24.3978L365.134 24.0835H364.582L364.337 24.3978H364.099L365.096 23.1405L365.441 24.3978H365.211ZM364.713 23.9225H365.104L365.035 23.6465C365.027 23.6312 365.027 23.6082 365.027 23.5852C365.027 23.5622 365.019 23.5392 365.019 23.5085C365.004 23.5315 364.989 23.5622 364.981 23.5852C364.966 23.6082 364.95 23.6312 364.935 23.6465L364.713 23.9225ZM367.151 23.3552L367.197 23.1865H366.231L366.185 23.3552H366.553L366.284 24.3978H366.507L366.775 23.3552H367.151ZM369.044 24.3978L369.359 23.1942H369.129L368.814 24.3978H369.044ZM370.164 24.3978L370.386 23.5622C370.401 23.5852 370.417 23.6082 370.432 23.6312C370.447 23.6542 370.47 23.6772 370.486 23.6925L371.191 24.4438L371.521 23.1942H371.314L371.099 24.0298C371.076 23.9992 371.061 23.9762 371.045 23.9455C371.03 23.9225 371.007 23.8995 370.992 23.8765L370.302 23.1405L369.972 24.3978H370.164ZM373.192 23.3552L373.23 23.1865H372.272L372.226 23.3552H372.594L372.326 24.3978H372.556L372.824 23.3552H373.192ZM374.457 24.3978L374.503 24.2215H373.951L374.051 23.8305H374.603L374.649 23.6618H374.097L374.173 23.3552H374.725L374.771 23.1865H373.989L373.675 24.3902H374.457V24.3978ZM375.653 23.8612L375.515 24.3978H375.3L375.615 23.1942H375.929C376.021 23.1942 376.09 23.2018 376.136 23.2095C376.182 23.2172 376.22 23.2402 376.251 23.2632C376.289 23.2938 376.312 23.3322 376.32 23.3782C376.328 23.4242 376.328 23.4778 376.312 23.5315C376.289 23.6312 376.243 23.7002 376.174 23.7615C376.105 23.8152 376.021 23.8535 375.914 23.8612L376.251 24.4132H375.998L375.676 23.8765H375.653V23.8612ZM375.707 23.7078H375.745C375.868 23.7078 375.944 23.6925 375.99 23.6695C376.036 23.6465 376.067 23.6005 376.082 23.5392C376.098 23.4702 376.09 23.4242 376.059 23.4012C376.021 23.3705 375.952 23.3628 375.837 23.3628H375.799L375.707 23.7078ZM377.202 24.3978L377.347 23.8305H377.899L377.945 23.6618H377.393L377.47 23.3628H378.022L378.068 23.1942H377.294L376.979 24.3978H377.202ZM379.433 24.3978L379.356 24.0835H378.804L378.559 24.3978H378.321L379.318 23.1405L379.663 24.3978H379.433ZM378.927 23.9225H379.318L379.249 23.6465C379.241 23.6312 379.241 23.6082 379.241 23.5852C379.241 23.5622 379.233 23.5392 379.233 23.5085C379.218 23.5315 379.203 23.5622 379.187 23.5852C379.172 23.6082 379.157 23.6312 379.149 23.6465L378.927 23.9225ZM381.771 23.2862C381.71 23.2478 381.648 23.2172 381.579 23.1942C381.51 23.1712 381.434 23.1635 381.349 23.1635C381.25 23.1635 381.15 23.1788 381.05 23.2095C380.951 23.2402 380.859 23.2862 380.782 23.3475C380.698 23.4088 380.629 23.4778 380.567 23.5545C380.514 23.6312 380.468 23.7155 380.445 23.7998C380.422 23.8918 380.422 23.9685 380.437 24.0528C380.452 24.1295 380.491 24.1985 380.537 24.2598C380.59 24.3212 380.659 24.3595 380.744 24.3902C380.828 24.4208 380.92 24.4362 381.027 24.4362C381.112 24.4362 381.188 24.4285 381.265 24.4055C381.342 24.3902 381.418 24.3595 381.487 24.3212L381.541 24.0988C381.457 24.1525 381.38 24.1908 381.296 24.2138C381.211 24.2368 381.135 24.2522 381.05 24.2522C380.912 24.2522 380.805 24.2062 380.736 24.1218C380.667 24.0375 380.644 23.9302 380.682 23.7998C380.721 23.6618 380.797 23.5545 380.912 23.4702C381.027 23.3858 381.165 23.3398 381.319 23.3398C381.395 23.3398 381.472 23.3552 381.533 23.3782C381.595 23.4012 381.656 23.4395 381.71 23.4855L381.771 23.2862ZM383.113 24.3978L383.159 24.2215H382.607L382.706 23.8305H383.258L383.304 23.6618H382.752L382.829 23.3552H383.381L383.427 23.1865H382.653L382.338 24.3902H383.113V24.3978ZM385.359 24.3978L385.505 23.8305H386.057L386.103 23.6618H385.551L385.627 23.3628H386.179L386.225 23.1942H385.451L385.137 24.3978H385.359ZM388.318 23.7998C388.295 23.8842 388.257 23.9685 388.196 24.0452C388.142 24.1218 388.065 24.1908 387.981 24.2522C387.897 24.3135 387.805 24.3595 387.705 24.3902C387.605 24.4208 387.506 24.4362 387.414 24.4362C387.314 24.4362 387.222 24.4208 387.138 24.3902C387.053 24.3595 386.984 24.3135 386.931 24.2522C386.877 24.1908 386.839 24.1218 386.823 24.0528C386.808 23.9762 386.808 23.8918 386.831 23.8075C386.854 23.7232 386.892 23.6388 386.946 23.5622C387 23.4855 387.076 23.4165 387.161 23.3552C387.245 23.2938 387.337 23.2478 387.437 23.2172C387.536 23.1865 387.636 23.1712 387.736 23.1712C387.835 23.1712 387.927 23.1865 388.012 23.2172C388.096 23.2478 388.157 23.2938 388.219 23.3552C388.272 23.4165 388.311 23.4855 388.326 23.5622C388.341 23.6312 388.341 23.7155 388.318 23.7998ZM388.081 23.7998C388.096 23.7385 388.096 23.6772 388.088 23.6235C388.081 23.5698 388.058 23.5162 388.019 23.4778C387.981 23.4318 387.935 23.4012 387.881 23.3782C387.828 23.3552 387.766 23.3475 387.697 23.3475C387.628 23.3475 387.559 23.3552 387.498 23.3782C387.429 23.4012 387.368 23.4318 387.306 23.4778C387.245 23.5162 387.199 23.5698 387.161 23.6235C387.122 23.6772 387.092 23.7385 387.076 23.7998C387.061 23.8612 387.061 23.9225 387.069 23.9762C387.076 24.0298 387.107 24.0835 387.138 24.1218C387.176 24.1678 387.222 24.1985 387.276 24.2215C387.329 24.2445 387.391 24.2522 387.46 24.2522C387.529 24.2522 387.598 24.2368 387.659 24.2215C387.728 24.1985 387.789 24.1678 387.851 24.1218C387.912 24.0758 387.958 24.0298 388.004 23.9762C388.035 23.9148 388.065 23.8612 388.081 23.7998ZM389.361 23.8612L389.223 24.3978H389.008L389.323 23.1942H389.637C389.729 23.1942 389.798 23.2018 389.852 23.2095C389.898 23.2172 389.936 23.2402 389.967 23.2632C390.005 23.2938 390.028 23.3322 390.036 23.3782C390.043 23.4242 390.043 23.4778 390.028 23.5315C390.005 23.6312 389.959 23.7002 389.89 23.7615C389.821 23.8152 389.737 23.8535 389.629 23.8612L389.967 24.4132H389.714L389.392 23.8765H389.361V23.8612ZM389.415 23.7078H389.453C389.576 23.7078 389.652 23.6925 389.698 23.6695C389.744 23.6465 389.775 23.6005 389.79 23.5392C389.806 23.4702 389.798 23.4242 389.767 23.4012C389.729 23.3705 389.66 23.3628 389.545 23.3628H389.507L389.415 23.7078ZM393.141 24.3978H393.348L393.34 23.1405L392.742 23.8995L392.719 23.9302C392.673 23.9838 392.642 24.0298 392.619 24.0605C392.612 24.0222 392.604 23.9838 392.596 23.9532C392.589 23.9225 392.589 23.9072 392.581 23.8918L392.374 23.1328L391.715 24.3902H391.922L392.228 23.7922C392.244 23.7615 392.259 23.7308 392.267 23.7078C392.274 23.6772 392.29 23.6542 392.297 23.6312C392.297 23.6542 392.305 23.6848 392.305 23.7078C392.313 23.7308 392.313 23.7615 392.32 23.7845L392.512 24.4438L393.041 23.7998C393.064 23.7692 393.087 23.7462 393.102 23.7155C393.118 23.6848 393.133 23.6618 393.148 23.6312C393.148 23.6542 393.141 23.6848 393.141 23.7155C393.133 23.7615 393.133 23.7845 393.133 23.7922V24.3978H393.141ZM395.701 23.7998C395.678 23.8842 395.64 23.9685 395.586 24.0452C395.533 24.1218 395.456 24.1908 395.372 24.2522C395.287 24.3135 395.195 24.3595 395.096 24.3902C394.996 24.4208 394.896 24.4362 394.797 24.4362C394.697 24.4362 394.605 24.4208 394.521 24.3902C394.436 24.3595 394.367 24.3135 394.314 24.2522C394.26 24.1908 394.222 24.1218 394.206 24.0528C394.191 23.9762 394.191 23.8918 394.214 23.8075C394.237 23.7232 394.275 23.6388 394.329 23.5622C394.383 23.4855 394.459 23.4165 394.544 23.3552C394.628 23.2938 394.72 23.2478 394.82 23.2172C394.919 23.1865 395.019 23.1712 395.119 23.1712C395.218 23.1712 395.31 23.1865 395.387 23.2172C395.471 23.2478 395.54 23.2938 395.594 23.3552C395.648 23.4165 395.686 23.4855 395.701 23.5622C395.724 23.6312 395.724 23.7155 395.701 23.7998ZM395.464 23.7998C395.479 23.7385 395.479 23.6772 395.471 23.6235C395.464 23.5698 395.433 23.5162 395.402 23.4778C395.364 23.4318 395.318 23.4012 395.264 23.3782C395.211 23.3552 395.149 23.3475 395.08 23.3475C395.011 23.3475 394.942 23.3552 394.873 23.3782C394.804 23.4012 394.743 23.4318 394.682 23.4778C394.62 23.5162 394.574 23.5698 394.536 23.6235C394.498 23.6772 394.467 23.7385 394.452 23.7998C394.436 23.8612 394.436 23.9225 394.444 23.9762C394.459 24.0298 394.482 24.0835 394.513 24.1218C394.551 24.1678 394.597 24.1985 394.651 24.2215C394.705 24.2445 394.766 24.2522 394.835 24.2522C394.904 24.2522 394.973 24.2368 395.042 24.2215C395.111 24.1985 395.172 24.1678 395.234 24.1218C395.295 24.0758 395.341 24.0298 395.379 23.9762C395.418 23.9148 395.448 23.8612 395.464 23.7998ZM396.598 24.3978L396.813 23.5622C396.828 23.5852 396.844 23.6082 396.859 23.6312C396.874 23.6542 396.89 23.6772 396.913 23.6925L397.618 24.4438L397.948 23.1942H397.741L397.526 24.0298C397.503 23.9992 397.488 23.9762 397.465 23.9455C397.449 23.9225 397.426 23.8995 397.411 23.8765L396.721 23.1405L396.391 24.3978H396.598ZM399.312 24.3978L399.358 24.2215H398.806L398.906 23.8305H399.458L399.504 23.6618H398.952L399.029 23.3552H399.581L399.627 23.1865H398.852L398.538 24.3902H399.312V24.3978ZM400.685 24.3978L400.83 23.8458L401.482 23.1942H401.252L400.846 23.6005C400.83 23.6158 400.815 23.6312 400.8 23.6465C400.784 23.6618 400.769 23.6848 400.754 23.7002C400.746 23.6772 400.746 23.6618 400.738 23.6465C400.731 23.6312 400.723 23.6158 400.723 23.6082L400.539 23.2018H400.301L400.6 23.8535L400.455 24.4055H400.685V24.3978Z" fill="#6D6E71"/>
</g>
<g clip-path="url(#clip1_1832_165)">
<path fill-rule="evenodd" clip-rule="evenodd" d="M247.598 10C252.791 10 257 14.2533 257 19.5C257 24.7467 252.791 29 247.598 29C245.272 29 243.142 28.146 241.501 26.7312C239.858 28.1456 237.729 29 235.402 29C230.209 29 226 24.7467 226 19.5C226 14.2533 230.209 10 235.402 10C237.729 10 239.859 10.8544 241.5 12.2696C243.142 10.854 245.272 10 247.598 10Z" fill="#FF5E00"/>
<path fill-rule="evenodd" clip-rule="evenodd" d="M235.402 10C237.729 10 239.859 10.8544 241.5 12.2696C239.479 14.0112 238.197 16.6043 238.197 19.5C238.197 22.3957 239.479 24.9888 241.501 26.7312C239.858 28.1456 237.729 29 235.402 29C230.209 29 226 24.7467 226 19.5C226 14.2533 230.209 10 235.402 10Z" fill="#ED0006"/>
<path fill-rule="evenodd" clip-rule="evenodd" d="M247.599 10C252.791 10 257 14.2533 257 19.5C257 24.7467 252.791 29 247.599 29C245.271 29 243.142 28.1456 241.5 26.7304C243.522 24.9879 244.803 22.3952 244.803 19.5C244.803 16.6048 243.522 14.0121 241.5 12.2696C243.142 10.8544 245.271 10 247.599 10Z" fill="#F9A000"/>
<path d="M269 1H213C211.895 1 211 1.89543 211 3V35C211 36.1046 211.895 37 213 37H269C270.105 37 271 36.1046 271 35V3C271 1.89543 270.105 1 269 1Z" stroke="#E6E6E6"/>
</g>
<g clip-path="url(#clip2_1832_165)">
<path d="M338 1H282C280.895 1 280 1.89543 280 3V35C280 36.1046 280.895 37 282 37H338C339.105 37 340 36.1046 340 35V3C340 1.89543 339.105 1 338 1Z" stroke="#E6E6E6"/>
<path d="M332.179 13.9648L335 19.566L329.07 25.1699L332.179 13.9648Z" fill="#008C44"/>
<path d="M330.227 13.9648L333.043 19.566L327.117 25.1699L330.227 13.9648Z" fill="#F47920"/>
<path d="M285 23.1328L287.813 13H292.309C293.714 13 294.653 13.2224 295.131 13.6809C295.605 14.1356 295.696 14.8779 295.41 15.9213C295.237 16.5359 294.975 17.0518 294.614 17.4594C294.256 17.8677 293.783 18.1906 293.202 18.4281C293.695 18.5467 294.009 18.7822 294.15 19.1353C294.29 19.4884 294.274 20.0033 294.104 20.6783L293.762 22.0936L293.761 22.132C293.662 22.5283 293.691 22.7404 293.852 22.7576L293.748 23.1328H290.707C290.717 22.8944 290.736 22.6812 290.756 22.5022C290.778 22.3191 290.805 22.1771 290.832 22.0797L291.116 21.0677C291.259 20.5415 291.268 20.1744 291.135 19.963C291.001 19.746 290.702 19.6391 290.229 19.6391H288.95L287.976 23.1328H285ZM289.583 17.3558H290.952C291.432 17.3558 291.786 17.2873 292.004 17.1456C292.224 17.0027 292.386 16.7613 292.482 16.4121C292.581 16.0571 292.557 15.8096 292.415 15.6689C292.273 15.5259 291.934 15.4565 291.401 15.4565H290.11L289.583 17.3558Z" fill="#1B3281"/>
<path d="M303.759 15.6562L301.686 23.1335H299.166L299.476 22.0381C299.033 22.4737 298.579 22.8044 298.121 23.0158C297.668 23.2309 297.189 23.3367 296.685 23.3367C296.268 23.3367 295.91 23.2611 295.622 23.1111C295.331 22.9615 295.114 22.7343 294.968 22.4344C294.838 22.172 294.781 21.8477 294.804 21.4605C294.827 21.0794 294.961 20.4367 295.211 19.5365L296.285 15.6562H299.041L297.969 19.5183C297.812 20.0836 297.775 20.4809 297.852 20.6972C297.931 20.9155 298.143 21.0281 298.488 21.0281C298.835 21.0281 299.127 20.9025 299.369 20.6459C299.613 20.3915 299.802 20.012 299.944 19.5072L301.007 15.6562H303.759Z" fill="#1B3281"/>
<path d="M302.758 23.1328L305.567 13H309.432C310.285 13 310.945 13.0503 311.416 13.1608C311.886 13.2666 312.254 13.4385 312.528 13.6809C312.871 13.9979 313.081 14.3903 313.167 14.861C313.249 15.3317 313.201 15.88 313.023 16.5239C312.708 17.6566 312.156 18.5246 311.37 19.1311C310.581 19.7297 309.605 20.0305 308.441 20.0305H306.632L305.773 23.1328H302.758ZM307.317 17.5559H308.289C308.917 17.5559 309.359 17.4783 309.617 17.3285C309.868 17.1768 310.046 16.9072 310.155 16.5239C310.263 16.1354 310.235 15.8638 310.071 15.7121C309.913 15.5611 309.51 15.4847 308.864 15.4847H307.894L307.317 17.5559Z" fill="#1B3281"/>
<path d="M316.265 23.1313L316.293 22.4212C315.849 22.7539 315.399 23.0053 314.946 23.1625C314.496 23.3226 314.016 23.4039 313.502 23.4039C312.721 23.4039 312.177 23.1917 311.862 22.7812C311.551 22.3699 311.5 21.7793 311.712 21.026C311.916 20.2825 312.277 19.7351 312.798 19.3852C313.316 19.0311 314.181 18.7777 315.395 18.6157C315.549 18.5906 315.755 18.5705 316.014 18.5393C316.911 18.4354 317.415 18.1963 317.524 17.8061C317.58 17.5925 317.546 17.4348 317.413 17.3381C317.285 17.2376 317.046 17.1883 316.701 17.1883C316.414 17.1883 316.184 17.2477 315.995 17.3712C315.806 17.496 315.665 17.6782 315.569 17.9345H312.882C313.125 17.0928 313.621 16.4568 314.365 16.0315C315.106 15.5988 316.084 15.3906 317.295 15.3906C317.865 15.3906 318.375 15.4439 318.826 15.5596C319.277 15.6703 319.607 15.8282 319.821 16.0192C320.085 16.2577 320.241 16.5295 320.285 16.83C320.336 17.1298 320.28 17.5596 320.123 18.1219L318.967 22.2906C318.93 22.4271 318.923 22.5489 318.943 22.6596C318.967 22.7652 319.013 22.8556 319.095 22.9201L319.033 23.1313H316.265ZM316.935 19.7926C316.643 19.9102 316.262 20.0229 315.79 20.1467C315.047 20.3458 314.63 20.6115 314.539 20.9403C314.477 21.1517 314.502 21.3145 314.605 21.4383C314.707 21.5559 314.884 21.6153 315.134 21.6153C315.591 21.6153 315.958 21.4996 316.232 21.2713C316.507 21.04 316.712 20.6768 316.856 20.1759C316.881 20.0693 316.903 19.9927 316.917 19.9355L316.935 19.7926Z" fill="#1B3281"/>
<path d="M319.055 26.0799L319.666 23.8667H320.455C320.718 23.8667 320.926 23.8146 321.073 23.7198C321.222 23.6214 321.323 23.4554 321.381 23.2319C321.411 23.1335 321.429 23.0298 321.441 22.9122C321.449 22.7875 321.449 22.6556 321.441 22.5029L321.02 15.6562H323.81L323.766 20.193L326.202 15.6562H328.796L324.491 23.0974C324.002 23.929 323.647 24.5005 323.421 24.8124C323.199 25.1203 322.988 25.3597 322.783 25.5218C322.517 25.7459 322.221 25.9047 321.9 25.9973C321.579 26.0918 321.091 26.1391 320.434 26.1391C320.245 26.1391 320.027 26.1353 319.792 26.123C319.559 26.1139 319.309 26.1 319.055 26.0799Z" fill="#1B3281"/>
</g>
<g clip-path="url(#clip3_1832_165)">
<path d="M129 1H73C71.8954 1 71 1.89543 71 3V35C71 36.1046 71.8954 37 73 37H129C130.105 37 131 36.1046 131 35V3C131 1.89543 130.105 1 129 1Z" stroke="#E6E6E6"/>
<path fill-rule="evenodd" clip-rule="evenodd" d="M92.2504 24.9065H89.0483L86.6471 15.5973C86.5331 15.1691 86.2911 14.7905 85.9351 14.6121C85.0468 14.1637 84.0679 13.8068 83 13.6268V13.2684H88.1584C88.8703 13.2684 89.4042 13.8068 89.4932 14.4321L90.7391 21.1472L93.9397 13.2684H97.0528L92.2504 24.9065ZM98.8326 24.9065H95.8085L98.2987 13.2684H101.323L98.8326 24.9065ZM105.235 16.4925C105.324 15.8657 105.858 15.5073 106.481 15.5073C107.46 15.4173 108.526 15.5973 109.416 16.0441L109.95 13.5384C109.06 13.18 108.081 13 107.193 13C104.258 13 102.122 14.6121 102.122 16.8494C102.122 18.5514 103.635 19.4451 104.703 19.9835C105.858 20.5203 106.303 20.8787 106.214 21.4156C106.214 22.2208 105.324 22.5792 104.436 22.5792C103.368 22.5792 102.3 22.3108 101.323 21.8624L100.789 24.3697C101.857 24.8166 103.012 24.9965 104.08 24.9965C107.371 25.085 109.416 23.4745 109.416 21.0572C109.416 18.013 105.235 17.8346 105.235 16.4925ZM120 24.9065L117.599 13.2684H115.02C114.486 13.2684 113.952 13.6268 113.774 14.1637L109.327 24.9065H112.44L113.062 23.2061H116.887L117.243 24.9065H120ZM115.465 16.4025L116.353 20.7887H113.863L115.465 16.4025Z" fill="#224DBA"/>
</g>
<g clip-path="url(#clip4_1832_165)">
<path d="M59 1H3C1.89543 1 1 1.89543 1 3V35C1 36.1046 1.89543 37 3 37H59C60.1046 37 61 36.1046 61 35V3C61 1.89543 60.1046 1 59 1Z" stroke="#E6E6E6"/>
<path d="M8.87293 16.8828L7.45765 22.2356H4L4.70111 19.6023L8.87293 16.8828Z" fill="#072654"/>
<path d="M16.2338 15.1836C17.0437 15.1879 17.6142 15.3643 17.9364 15.7215C18.2587 16.0786 18.3371 16.5863 18.1585 17.2533C18.041 17.7094 17.8015 18.1268 17.4661 18.4581C17.1178 18.8023 16.691 19.0519 16.2163 19.181C16.5778 19.2628 16.7999 19.5166 16.8695 19.9512L16.8826 20.0459L17.1439 22.2361H15.5326L15.2626 19.8781C15.2583 19.8006 15.2365 19.7232 15.1973 19.6543C15.1581 19.5855 15.1015 19.5295 15.0362 19.4865C14.9012 19.4177 14.7531 19.3832 14.6007 19.3789H14.5093H13.5164L12.7587 22.2318H11.252L13.1245 15.1836H16.2338ZM57.5121 17.0295L55.5961 19.7576L53.336 22.9934L53.3185 23.0106L52.8134 23.7335L52.796 23.7593L52.7742 23.7937L52.3387 24.4133H50.8407L52.5913 21.9736L51.7987 17.2017H53.3534L53.7453 20.3127L55.644 17.6492L55.6701 17.6104L55.7006 17.5674L55.7311 17.5287L55.9662 17.0338H57.5121V17.0295ZM44.239 17.4082C44.5264 17.6492 44.7136 17.9805 44.7789 18.3505C44.8573 18.811 44.8225 19.2886 44.6875 19.7361C44.5612 20.2309 44.3478 20.6956 44.0517 21.1087C43.7817 21.4874 43.4333 21.8015 43.0283 22.0252C42.6451 22.2318 42.2227 22.3393 41.7872 22.3393C41.4781 22.3523 41.1732 22.2748 40.9076 22.1199C40.7029 21.9994 40.5461 21.8144 40.4591 21.5949L40.4329 21.5089L39.6621 24.4133H38.1685L39.697 18.6474L39.7057 18.6216L39.71 18.5958L40.0845 17.1974H41.5434L41.2952 18.0063L41.2908 18.0407C41.5042 17.7395 41.7916 17.4943 42.1226 17.3351C42.4535 17.1629 42.8193 17.0769 43.1895 17.0769C43.5596 17.0554 43.9341 17.1758 44.239 17.4082ZM42.4361 18.2085C42.2619 18.2042 42.0877 18.2387 41.9222 18.3032C41.7611 18.3678 41.6131 18.4667 41.4868 18.5872C41.1906 18.8884 40.986 19.2714 40.8945 19.6801C40.7639 20.1578 40.7726 20.5192 40.9032 20.7688C41.0339 21.0183 41.2821 21.1474 41.6522 21.1474C42.005 21.156 42.3446 21.0227 42.6016 20.7774C42.889 20.4805 43.0893 20.1104 43.1808 19.706C43.307 19.2369 43.2983 18.8626 43.1677 18.6001C43.037 18.3376 42.7932 18.2085 42.4361 18.2085ZM49.1424 17.2963C49.3427 17.4211 49.4995 17.6061 49.5865 17.8256L49.617 17.9073L49.8086 17.1931H51.2718L49.9306 22.2275H48.463L48.659 21.4831C48.4369 21.7455 48.1582 21.9521 47.8447 22.0941C47.5398 22.2318 47.2132 22.3049 46.8823 22.3049C46.4991 22.3221 46.1158 22.2146 45.8023 21.9865C45.5149 21.7628 45.3233 21.4357 45.2623 21.0786C45.1839 20.6225 45.2101 20.1578 45.3451 19.7146C45.4757 19.2197 45.6934 18.7507 45.9939 18.3333C46.2682 17.9504 46.621 17.6276 47.0303 17.3953C47.4048 17.1801 47.8316 17.064 48.2627 17.064C48.5763 17.0554 48.8811 17.1328 49.1424 17.2963ZM48.3846 18.2215C48.2061 18.2215 48.0276 18.2559 47.8664 18.3247C47.701 18.3936 47.5529 18.4925 47.4266 18.6173C47.1348 18.9228 46.9258 19.3015 46.8344 19.7146C46.7124 20.1793 46.7124 20.5321 46.8518 20.786C46.9868 21.0399 47.2394 21.1603 47.6139 21.1603C47.788 21.1646 47.9622 21.1302 48.1277 21.0657C48.2932 21.0011 48.4369 20.9022 48.5632 20.7817C48.8201 20.5106 49.0074 20.1879 49.1119 19.8264L49.1467 19.693C49.2774 19.2154 49.273 18.8497 49.1337 18.6044C48.9987 18.3505 48.7504 18.2215 48.3846 18.2215ZM39.3312 17.1414L39.427 17.1801L39.0525 18.5528C38.8391 18.4409 38.6039 18.385 38.3688 18.385C38.0117 18.3721 37.6633 18.4882 37.3803 18.7077C37.1364 18.9142 36.9579 19.1896 36.8664 19.4908L36.8359 19.607L36.1392 22.2361H34.6499L35.9998 17.2017H37.4674L37.2758 17.9418C37.4587 17.6922 37.6938 17.49 37.9594 17.3394C38.2556 17.1715 38.5865 17.0855 38.9262 17.0855C39.0612 17.0769 39.2005 17.0941 39.3312 17.1414ZM33.8312 17.3824C34.1621 17.5889 34.4016 17.9159 34.4931 18.2946C34.602 18.7507 34.5845 19.2326 34.4452 19.6801C34.3145 20.1879 34.0837 20.6612 33.7571 21.0657C33.448 21.4572 33.056 21.7671 32.6075 21.9779C32.1503 22.1887 31.6538 22.2963 31.1487 22.292C30.6174 22.292 30.1819 22.1887 29.8423 21.9779C29.5069 21.7714 29.2674 21.4443 29.1716 21.0657C29.0671 20.6096 29.0845 20.1276 29.2195 19.6801C29.3502 19.1767 29.581 18.7034 29.9076 18.2946C30.2168 17.9073 30.613 17.5932 31.0659 17.3824C31.5275 17.1715 32.0327 17.0597 32.5422 17.0683C32.9907 17.0468 33.4392 17.1586 33.8312 17.3824ZM32.2373 18.2042C31.8846 18.1999 31.5449 18.3333 31.288 18.5743C31.0224 18.8239 30.8221 19.1896 30.6958 19.6801C30.4345 20.6655 30.6871 21.156 31.4535 21.156C31.8019 21.1646 32.1372 21.0313 32.3898 20.7903C32.651 20.545 32.8426 20.175 32.9733 19.6801C33.1039 19.1939 33.1083 18.8282 32.9776 18.5743C32.8514 18.3204 32.6031 18.2042 32.2373 18.2042ZM29.2108 17.1974L28.9495 18.1956L25.6617 21.0657H28.3007L27.9871 22.2404H23.6194L23.8937 21.2034L27.1293 18.3764H24.6688L24.9824 17.2017H29.2108V17.1974ZM21.8383 17.2963C22.0386 17.4211 22.1954 17.6061 22.2825 17.8256L22.3129 17.9073L22.5045 17.1931H23.9721L22.6352 22.2275H21.1676L21.3636 21.4831C21.1415 21.7412 20.8672 21.9478 20.558 22.0898C20.2488 22.2318 19.9135 22.3049 19.5695 22.3049C19.1863 22.3221 18.8117 22.2103 18.5026 21.9865C18.2151 21.7628 18.0235 21.4357 17.9626 21.0786C17.8842 20.6225 17.9103 20.1578 18.0453 19.7146C18.1716 19.2197 18.3937 18.7507 18.6942 18.3333C18.9685 17.9504 19.3212 17.6276 19.7262 17.3953C20.1007 17.1801 20.5275 17.0683 20.9586 17.0683C21.2722 17.0597 21.577 17.1371 21.8383 17.2963ZM21.0849 18.2215C20.9064 18.2215 20.7322 18.2559 20.5667 18.3247C20.4012 18.3936 20.2532 18.4925 20.1269 18.6173C19.8307 18.9228 19.6261 19.3015 19.5346 19.7146C19.4127 20.1793 19.4171 20.5321 19.552 20.786C19.687 21.0399 19.9396 21.1603 20.3141 21.1603C20.4883 21.1646 20.6625 21.1302 20.828 21.0657C20.9891 21.0011 21.1415 20.9022 21.2635 20.7817C21.5204 20.5149 21.712 20.1879 21.8121 19.8264L21.847 19.693C21.9733 19.2154 21.9602 18.8583 21.8339 18.6044C21.6989 18.3505 21.4464 18.2215 21.0849 18.2215ZM15.6938 16.3583H14.2959L13.8038 18.1999H15.2017C15.6415 18.1999 15.9899 18.1268 16.225 17.9762C16.4733 17.817 16.6518 17.5674 16.7171 17.2748C16.8042 16.965 16.765 16.7283 16.5995 16.5777C16.4341 16.4357 16.1336 16.3583 15.6938 16.3583Z" fill="#072654"/>
<path d="M12.0136 13L9.55757 22.2384H7.87229L9.53144 15.9819L6.98828 17.6385L7.44117 15.9905L12.0136 13Z" fill="#3395FF"/>
</g>
<g clip-path="url(#clip5_1832_165)">
<path d="M199 1H143C141.895 1 141 1.89543 141 3V35C141 36.1046 141.895 37 143 37H199C200.105 37 201 36.1046 201 35V3C201 1.89543 200.105 1 199 1Z" stroke="#E6E6E6"/>
<path fill-rule="evenodd" clip-rule="evenodd" d="M169.681 22.951V18.8425H171.801C172.67 18.8425 173.404 18.5514 174.002 17.9771L174.145 17.8316C175.237 16.6427 175.165 14.7906 174.002 13.6907C173.42 13.1084 172.623 12.793 171.801 12.8092H168.397V22.951H169.681ZM169.681 17.5969V14.0546H171.834C172.296 14.0546 172.735 14.2325 173.062 14.556C173.755 15.2354 173.771 16.3676 173.101 17.0712C172.775 17.419 172.312 17.6131 171.834 17.5969H169.681Z" fill="#3C4043"/>
<path fill-rule="evenodd" clip-rule="evenodd" d="M180.132 16.5537C179.582 16.0442 178.833 15.7854 177.884 15.7854C176.664 15.7854 175.747 16.2383 175.142 17.136L176.274 17.8558C176.688 17.2411 177.254 16.9338 177.972 16.9338C178.426 16.9338 178.864 17.1037 179.207 17.411C179.542 17.7021 179.733 18.1227 179.733 18.5675V18.8668C179.239 18.5918 178.617 18.4462 177.852 18.4462C176.959 18.4462 176.242 18.6565 175.708 19.0851C175.173 19.5138 174.902 20.0799 174.902 20.7997C174.887 21.4548 175.166 22.0775 175.66 22.4981C176.162 22.951 176.8 23.1774 177.549 23.1774C178.434 23.1774 179.135 22.7812 179.67 21.9886H179.725V22.951H180.953V18.6726C180.953 17.7749 180.682 17.0632 180.132 16.5537ZM176.648 21.6731C176.385 21.479 176.226 21.1636 176.226 20.8239C176.226 20.4438 176.401 20.1284 176.744 19.8777C177.095 19.627 177.533 19.4976 178.052 19.4976C178.769 19.4895 179.327 19.6512 179.726 19.9747C179.726 20.5247 179.511 21.0019 179.088 21.4062C178.706 21.7944 178.187 22.0128 177.645 22.0128C177.286 22.0209 176.936 21.8996 176.648 21.6731Z" fill="#3C4043"/>
<path d="M188 16.0118L183.711 26H182.388L183.982 22.5062L181.168 16.0118H182.563L184.596 20.9938H184.62L186.605 16.0118H188Z" fill="#3C4043"/>
<path d="M165.25 17.9528C165.25 17.5565 165.218 17.1602 165.154 16.772H159.742V19.0123H162.843C162.715 19.7321 162.301 20.3791 161.695 20.7834V22.2392H163.544C164.628 21.2283 165.25 19.7321 165.25 17.9528Z" fill="#4285F4"/>
<path d="M159.742 23.6464C161.288 23.6464 162.595 23.1289 163.544 22.2392L161.695 20.7834C161.176 21.1393 160.515 21.3415 159.742 21.3415C158.243 21.3415 156.976 20.3143 156.521 18.9394H154.616V20.4437C155.589 22.409 157.573 23.6464 159.742 23.6464Z" fill="#34A853"/>
<path d="M156.521 18.9394C156.282 18.2196 156.282 17.4353 156.521 16.7074V15.2112H154.616C153.795 16.853 153.795 18.794 154.616 20.4358L156.521 18.9394Z" fill="#FBBC04"/>
<path d="M159.742 14.3053C160.563 14.2891 161.352 14.6046 161.942 15.1788L163.584 13.5127C162.54 12.526 161.169 11.9842 159.742 12.0004C157.573 12.0004 155.588 13.2459 154.616 15.2112L156.521 16.7154C156.976 15.3324 158.243 14.3053 159.742 14.3053Z" fill="#EA4335"/>
</g>
<defs>
<clipPath id="clip0_1832_165">
<rect width="62" height="38" fill="white" transform="translate(349)"/>
</clipPath>
<clipPath id="clip1_1832_165">
<rect width="62" height="38" fill="white" transform="translate(210)"/>
</clipPath>
<clipPath id="clip2_1832_165">
<rect width="62" height="38" fill="white" transform="translate(279)"/>
</clipPath>
<clipPath id="clip3_1832_165">
<rect width="62" height="38" fill="white" transform="translate(70)"/>
</clipPath>
<clipPath id="clip4_1832_165">
<rect width="62" height="38" fill="white"/>
</clipPath>
<clipPath id="clip5_1832_165">
<rect width="62" height="38" fill="white" transform="translate(140)"/>
</clipPath>
</defs>
</svg>
