<svg width="24" height="25" viewBox="0 0 24 25" fill="none" xmlns="http://www.w3.org/2000/svg">
<path d="M8 16.5L16.7201 15.7733C19.4486 15.546 20.0611 14.95 20.3635 12.2289L21 6.5" stroke="#2C2929" stroke-width="1.5" stroke-linecap="round"/>
<path d="M6 6.5H22" stroke="#2C2929" stroke-width="1.5" stroke-linecap="round"/>
<path d="M6 22.5C7.10457 22.5 8 21.6046 8 20.5C8 19.3954 7.10457 18.5 6 18.5C4.89543 18.5 4 19.3954 4 20.5C4 21.6046 4.89543 22.5 6 22.5Z" stroke="#2C2929" stroke-width="1.5"/>
<path d="M17 22.5C18.1046 22.5 19 21.6046 19 20.5C19 19.3954 18.1046 18.5 17 18.5C15.8954 18.5 15 19.3954 15 20.5C15 21.6046 15.8954 22.5 17 22.5Z" stroke="#2C2929" stroke-width="1.5"/>
<path d="M8 20.5H15" stroke="#2C2929" stroke-width="1.5" stroke-linecap="round"/>
<path d="M2 2.5H2.966C3.91068 2.5 4.73414 3.12459 4.96326 4.01493L7.93852 15.5765C8.08887 16.1608 7.9602 16.7797 7.58824 17.2616L6.63213 18.5" stroke="#2C2929" stroke-width="1.5" stroke-linecap="round"/>
</svg>
