<svg width="29" height="29" viewBox="0 0 29 29" fill="none" xmlns="http://www.w3.org/2000/svg">
<g clip-path="url(#clip0_288_1135)">
<path d="M7.7276 14.5001L13.5276 19.3335L21.2609 9.6668M14.4943 28.0335C12.717 28.0335 10.9572 27.6834 9.31529 27.0033C7.67335 26.3232 6.18144 25.3263 4.92476 24.0696C3.66807 22.813 2.67121 21.3211 1.9911 19.6791C1.31099 18.0372 0.960938 16.2774 0.960938 14.5001C0.960938 12.7229 1.31099 10.9631 1.9911 9.32115C2.67121 7.67921 3.66807 6.1873 4.92476 4.93062C6.18144 3.67393 7.67335 2.67707 9.31529 1.99696C10.9572 1.31685 12.717 0.966797 14.4943 0.966797C18.0835 0.966797 21.5258 2.39263 24.0638 4.93062C26.6018 7.46861 28.0276 10.9109 28.0276 14.5001C28.0276 18.0894 26.6018 21.5316 24.0638 24.0696C21.5258 26.6076 18.0835 28.0335 14.4943 28.0335Z" stroke="#FF5D58" stroke-width="1.5"/>
</g>
<defs>
<clipPath id="clip0_288_1135">
<rect width="29" height="29" fill="white" transform="translate(-0.00390625)"/>
</clipPath>
</defs>
</svg>
