<svg width="44" height="44" viewBox="0 0 44 44" fill="none" xmlns="http://www.w3.org/2000/svg">
<rect width="44" height="44" rx="22" fill="white"/>
<path d="M28.8906 22.846C28.5371 24.189 26.8667 25.138 23.5257 27.0361C20.296 28.8709 18.6812 29.7884 17.3798 29.4196C16.8418 29.2671 16.3516 28.9776 15.9562 28.5787C15 27.6139 15 25.7426 15 22C15 18.2574 15 16.3861 15.9562 15.4213C16.3516 15.0225 16.8418 14.7329 17.3798 14.5804C18.6812 14.2117 20.296 15.1291 23.5257 16.9639C26.8667 18.862 28.5371 19.811 28.8906 21.154C29.0365 21.7084 29.0365 22.2916 28.8906 22.846Z" stroke="black" stroke-width="1.5" stroke-linejoin="round"/>
</svg>
