<svg width="16" height="16" viewBox="0 0 16 16" fill="none" xmlns="http://www.w3.org/2000/svg">
<g clip-path="url(#clip0_41_1921)">
<path d="M2.51809 7.96158C1.88607 6.85951 1.58091 5.95963 1.3969 5.04745C1.12475 3.69837 1.74755 2.38052 2.77926 1.53963C3.21531 1.18423 3.71516 1.30566 3.97301 1.76825L4.55513 2.81259C5.01653 3.64036 5.24723 4.05424 5.20147 4.49304C5.15572 4.93184 4.84459 5.28922 4.22232 6.00399L2.51809 7.96158ZM2.51809 7.96158C3.79735 10.1922 5.8049 12.2008 8.03807 13.4816M8.03807 13.4816C9.14014 14.1136 10.04 14.4188 10.9522 14.6028C12.3013 14.8749 13.6191 14.2521 14.46 13.2204C14.8154 12.7844 14.694 12.2845 14.2314 12.0266L13.1871 11.4445C12.3593 10.9831 11.9454 10.7524 11.5066 10.7982C11.0678 10.8439 10.7104 11.155 9.99567 11.7773L8.03807 13.4816Z" stroke="#807373" stroke-linejoin="round"/>
</g>
<defs>
<clipPath id="clip0_41_1921">
<rect width="16" height="16" fill="white"/>
</clipPath>
</defs>
</svg>
