<svg width="12" height="13" viewBox="0 0 12 13" fill="none" xmlns="http://www.w3.org/2000/svg">
<path d="M8.5 10.8521C9.05228 10.8521 9.5 10.4043 9.5 9.85205C9.5 9.29977 9.05228 8.85205 8.5 8.85205C7.94772 8.85205 7.5 9.29977 7.5 9.85205C7.5 10.4043 7.94772 10.8521 8.5 10.8521Z" stroke="#FF5550" stroke-width="0.592593"/>
<path d="M3.50098 10.8521C4.05326 10.8521 4.50098 10.4043 4.50098 9.85205C4.50098 9.29977 4.05326 8.85205 3.50098 8.85205C2.94869 8.85205 2.50098 9.29977 2.50098 9.85205C2.50098 10.4043 2.94869 10.8521 3.50098 10.8521Z" stroke="#FF5550" stroke-width="0.592593"/>
<path d="M2.50098 9.83837C1.95262 9.81107 1.61053 9.72947 1.36709 9.48607C1.12366 9.24262 1.04209 8.90052 1.01475 8.35217M4.50098 9.85217H7.50098M9.50098 9.83837C10.0493 9.81107 10.3914 9.72947 10.6349 9.48607C11.001 9.11992 11.001 8.53067 11.001 7.35217V6.35217H8.65098C8.27873 6.35217 8.09258 6.35217 7.94198 6.30322C7.63753 6.20432 7.39883 5.96562 7.29993 5.66119C7.25098 5.51056 7.25098 5.32443 7.25098 4.95217C7.25098 4.39379 7.25098 4.1146 7.17758 3.88865C7.02918 3.43199 6.67118 3.07396 6.21453 2.92559C5.98858 2.85217 5.70938 2.85217 5.15098 2.85217H1.00098" stroke="#FF5550" stroke-width="0.592593" stroke-linecap="round" stroke-linejoin="round"/>
<path d="M1.00098 4.85461H4.00098" stroke="#FF5550" stroke-width="0.592593" stroke-linecap="round" stroke-linejoin="round"/>
<path d="M1.00098 6.35461H3.00098" stroke="#FF5550" stroke-width="0.592593" stroke-linecap="round" stroke-linejoin="round"/>
<path d="M7.25 3.85217H8.1606C8.8883 3.85217 9.2521 3.85217 9.5482 4.02903C9.8443 4.20588 10.0168 4.52623 10.3618 5.16692L11 6.35217" stroke="#FF5550" stroke-width="0.592593" stroke-linecap="round" stroke-linejoin="round"/>
</svg>
