<svg width="193" height="193" viewBox="0 0 193 193" fill="none" xmlns="http://www.w3.org/2000/svg">
<g clip-path="url(#clip0_853_8012)">
<path d="M96.5 193C149.795 193 193 149.795 193 96.5C193 43.2045 149.795 0 96.5 0C43.2045 0 0 43.2045 0 96.5C0 149.795 43.2045 193 96.5 193Z" fill="#FFE7EB"/>
<path d="M177.604 12.4062H101.539V155.908H177.604V12.4062Z" fill="#FFD9E1"/>
<path d="M174.279 164.612H104.336C99.4713 164.612 95.5137 160.654 95.5137 155.79V11.1581C95.5137 6.2936 99.4713 2.33594 104.336 2.33594H174.279C179.143 2.33594 183.101 6.2936 183.101 11.1581V155.792C183.101 160.656 179.143 164.614 174.279 164.614V164.612ZM104.336 2.801C99.7271 2.801 95.9787 6.54938 95.9787 11.1581V155.792C95.9787 160.401 99.7271 164.149 104.336 164.149H174.279C178.887 164.149 182.636 160.401 182.636 155.792V11.1581C182.636 6.54938 178.887 2.801 174.279 2.801H104.336Z" fill="#41193E"/>
<path d="M110.073 12.3711H118.613V33.3639C118.613 35.6869 116.728 37.575 114.402 37.575H114.281C111.958 37.575 110.07 35.6892 110.07 33.3639V12.3711H110.073Z" fill="white"/>
<path d="M122.83 37.575H122.709C120.384 37.575 118.498 35.6892 118.498 33.3639V12.3711H127.039V33.3639C127.039 35.6892 125.153 37.575 122.828 37.575H122.83Z" fill="#BC2649"/>
<path d="M105.795 37.575H105.674C103.349 37.575 101.463 35.6892 101.463 33.3639V12.3711H110.004V33.3639C110.004 35.6892 108.118 37.575 105.793 37.575H105.795Z" fill="#BC2649"/>
<path d="M126.926 12.3711H135.467V33.3639C135.467 35.6869 133.581 37.575 131.256 37.575H131.135C128.812 37.575 126.924 35.6892 126.924 33.3639V12.3711H126.926Z" fill="white"/>
<path d="M139.684 37.575H139.563C137.237 37.575 135.352 35.6892 135.352 33.3639V12.3711H143.892V33.3639C143.892 35.6892 142.007 37.575 139.681 37.575H139.684Z" fill="#BC2649"/>
<path d="M143.782 12.3711H152.322V33.3639C152.322 35.6869 150.437 37.575 148.111 37.575H147.99C145.667 37.575 143.779 35.6892 143.779 33.3639V12.3711H143.782Z" fill="white"/>
<path d="M156.537 37.575H156.416C154.091 37.575 152.205 35.6892 152.205 33.3639V12.3711H160.746V33.3639C160.746 35.6892 158.86 37.575 156.535 37.575H156.537Z" fill="#BC2649"/>
<path d="M160.635 12.3711H169.176V33.3639C169.176 35.6869 167.29 37.575 164.965 37.575H164.844C162.521 37.575 160.633 35.6892 160.633 33.3639V12.3711H160.635Z" fill="white"/>
<path d="M173.391 37.575H173.27C170.944 37.575 169.059 35.6892 169.059 33.3639V12.3711H177.599V33.3639C177.599 35.6892 175.714 37.575 173.388 37.575H173.391Z" fill="#BC2649"/>
<path d="M177.577 12.6018H101.465C101.337 12.6018 101.232 12.4971 101.232 12.3692C101.232 12.2414 101.337 12.1367 101.465 12.1367H177.577C177.705 12.1367 177.809 12.2414 177.809 12.3692C177.809 12.4971 177.705 12.6018 177.577 12.6018Z" fill="#BC2649"/>
<path d="M128.665 125.302C128.558 125.302 128.463 125.227 128.439 125.12L122.51 99.1861L115.164 99.2559C115.036 99.2559 114.932 99.1536 114.932 99.0257C114.932 98.8978 115.034 98.7932 115.162 98.7908L122.696 98.7188C122.805 98.7188 122.898 98.7932 122.921 98.9001L128.846 124.82L155.592 122.572L155.578 105.592L147.495 105.599C147.367 105.599 147.263 105.495 147.263 105.367C147.263 105.239 147.367 105.134 147.495 105.134L155.81 105.127C155.938 105.127 156.043 105.232 156.043 105.36L156.057 122.786C156.057 122.907 155.964 123.007 155.843 123.018L128.683 125.304C128.683 125.304 128.67 125.304 128.665 125.304V125.302Z" fill="#41193E"/>
<path d="M148.768 123.612C148.647 123.612 148.545 123.519 148.535 123.396L147.28 105.61L124.166 105.617C124.038 105.617 123.934 105.512 123.934 105.384C123.934 105.256 124.038 105.152 124.166 105.152L147.496 105.145C147.617 105.145 147.719 105.24 147.728 105.361L148.998 123.363C149.007 123.491 148.91 123.603 148.782 123.612C148.777 123.612 148.77 123.612 148.765 123.612H148.768Z" fill="#41193E"/>
<path d="M126.335 137.283C123.789 137.283 121.719 135.213 121.717 132.67C121.717 131.435 122.196 130.277 123.068 129.403C123.94 128.531 125.098 128.049 126.333 128.047H126.337C127.57 128.047 128.728 128.526 129.6 129.398C130.472 130.27 130.953 131.428 130.955 132.663C130.955 135.209 128.888 137.283 126.342 137.285H126.337L126.335 137.283ZM126.335 128.512H126.33C125.221 128.512 124.179 128.947 123.396 129.73C122.612 130.516 122.182 131.558 122.182 132.667C122.182 134.955 124.047 136.818 126.335 136.818H126.337C128.628 136.818 130.488 134.951 130.488 132.66C130.488 131.551 130.053 130.509 129.269 129.726C128.486 128.942 127.444 128.512 126.335 128.512Z" fill="#41193E"/>
<path d="M158.013 137.254C156.78 137.254 155.622 136.775 154.75 135.903C153.878 135.031 153.397 133.873 153.395 132.638C153.395 130.092 155.462 128.018 158.008 128.016H158.013C160.556 128.016 162.628 130.085 162.631 132.629C162.631 133.861 162.152 135.022 161.28 135.896C160.408 136.768 159.25 137.249 158.015 137.252H158.01L158.013 137.254ZM158.013 128.483H158.01C155.72 128.483 153.86 130.35 153.86 132.641C153.86 133.75 154.294 134.792 155.078 135.577C155.862 136.361 156.903 136.791 158.013 136.791H158.017C159.126 136.791 160.168 136.356 160.954 135.573C161.738 134.787 162.168 133.745 162.168 132.636C162.168 130.348 160.303 128.485 158.015 128.485L158.013 128.483Z" fill="#41193E"/>
<path d="M130.721 132.863C130.593 132.863 130.488 132.758 130.488 132.63C130.488 132.502 130.593 132.397 130.721 132.397L153.592 132.379C153.72 132.379 153.825 132.484 153.825 132.611C153.825 132.739 153.72 132.844 153.592 132.844L130.721 132.863Z" fill="#41193E"/>
<path d="M127.618 128.702C127.595 128.702 127.571 128.699 127.55 128.692C127.427 128.655 127.36 128.525 127.397 128.402L128.446 125.004C128.483 124.881 128.613 124.811 128.736 124.851C128.86 124.888 128.927 125.018 128.89 125.142L127.841 128.539C127.811 128.639 127.718 128.704 127.618 128.704V128.702Z" fill="#41193E"/>
<path d="M142.156 124.165C142.042 124.165 141.942 124.082 141.926 123.965L139.329 105.512C139.31 105.384 139.398 105.268 139.526 105.249C139.657 105.228 139.77 105.319 139.789 105.447L142.386 123.9C142.405 124.028 142.317 124.145 142.189 124.163C142.177 124.163 142.168 124.163 142.156 124.163V124.165Z" fill="#41193E"/>
<path d="M135.076 124.766C134.967 124.766 134.869 124.687 134.848 124.576L131.344 105.422C131.32 105.296 131.404 105.176 131.53 105.152C131.655 105.129 131.776 105.213 131.799 105.338L135.304 124.492C135.327 124.617 135.243 124.738 135.118 124.762C135.104 124.764 135.09 124.766 135.076 124.766Z" fill="#41193E"/>
<path d="M126.536 115.982C126.412 115.982 126.31 115.884 126.303 115.761C126.296 115.633 126.396 115.524 126.524 115.517L155.807 114.145C155.937 114.138 156.044 114.238 156.051 114.366C156.058 114.494 155.958 114.603 155.83 114.61L126.547 115.982C126.547 115.982 126.54 115.982 126.536 115.982Z" fill="#41193E"/>
<path d="M156.997 67.0241C157.032 57.6468 149.458 50.017 140.08 49.9827C130.703 49.9483 123.073 57.5223 123.039 66.8997C123.004 76.277 130.578 83.9068 139.956 83.9411C149.333 83.9755 156.963 76.4015 156.997 67.0241Z" fill="white"/>
<path d="M146.581 56.7031L140.024 63.2605L133.466 56.7031L129.76 60.412L136.317 66.967L129.76 73.5244L133.466 77.2309L140.024 70.6735L146.581 77.2309L150.288 73.5244L143.73 66.967L150.288 60.4097L146.581 56.7031Z" fill="#BC2649"/>
<path d="M58.9038 44.6449H56.5576C56.3483 43.5009 56.0483 42.3894 55.667 41.3174L57.697 40.1454L53.7277 33.2719L51.693 34.4461C50.9466 33.5718 50.1328 32.758 49.2584 32.0115L50.4327 29.9769L43.5591 26.0076L42.3872 28.0376C41.3129 27.6563 40.2014 27.3563 39.0597 27.147V24.8008H31.1234V27.147C29.9794 27.3563 28.8679 27.6563 27.7959 28.0376L26.624 26.0076L19.7504 29.9769L20.9246 32.0115C20.0503 32.758 19.2365 33.5718 18.4901 34.4461L16.4554 33.2719L12.4861 40.1454L14.5161 41.3174C14.1348 42.3917 13.8348 43.5032 13.6255 44.6449H11.2793V52.5812H13.6255C13.8348 53.7252 14.1348 54.8367 14.5161 55.9087L12.4861 57.0806L16.4554 63.9542L18.4901 62.7799C19.2365 63.6542 20.0503 64.4681 20.9246 65.2145L19.7504 67.2492L26.624 71.2184L27.7959 69.1885C28.8702 69.5698 29.9817 69.8698 31.1234 70.079V72.4253H39.0597V70.079C40.2037 69.8698 41.3152 69.5698 42.3872 69.1885L43.5591 71.2184L50.4327 67.2492L49.2584 65.2145C50.1328 64.4681 50.9466 63.6542 51.693 62.7799L53.7277 63.9542L57.697 57.0806L55.667 55.9087C56.0483 54.8344 56.3483 53.7229 56.5576 52.5812H58.9038V44.6449ZM47.1122 53.2392C45.8984 56.69 43.1685 59.4199 39.7177 60.6313C29.1144 64.3611 19.3434 54.5902 23.0732 43.9845C24.287 40.5338 27.0169 37.8039 30.4677 36.5924C41.0711 32.8626 50.842 42.6335 47.1122 53.2392Z" fill="#FFD9E1"/>
<path d="M90.0129 24.2571H88.5364C88.4038 23.5386 88.2155 22.8387 87.976 22.162L89.2526 21.4249L86.7552 17.0975L85.474 17.837C85.0042 17.2859 84.4927 16.7743 83.9416 16.3046L84.681 15.0234L80.3536 12.526L79.6165 13.8026C78.9399 13.5631 78.2399 13.3747 77.5214 13.2422V11.7656H72.5267V13.2422C71.8082 13.3747 71.1082 13.5631 70.4316 13.8026L69.6945 12.526L65.3671 15.0234L66.1065 16.3046C65.5554 16.7743 65.0439 17.2859 64.5741 17.837L63.2929 17.0975L60.7955 21.4249L62.0721 22.162C61.8326 22.8387 61.6443 23.5363 61.5117 24.2571H60.0352V29.2519H61.5117C61.6443 29.9704 61.8326 30.6703 62.0721 31.347L60.7955 32.0841L63.2929 36.4115L64.5741 35.672C65.0439 36.2231 65.5554 36.7347 66.1065 37.2044L65.3671 38.4857L69.6945 40.983L70.4316 39.7064C71.1082 39.946 71.8058 40.1343 72.5267 40.2668V41.7434H77.5214V40.2668C78.2399 40.1343 78.9399 39.946 79.6165 39.7064L80.3536 40.983L84.681 38.4857L83.9416 37.2044C84.4927 36.7347 85.0042 36.2231 85.474 35.672L86.7552 36.4115L89.2526 32.0841L87.976 31.347C88.2155 30.6703 88.4038 29.9727 88.5364 29.2519H90.0129V24.2571ZM82.5906 29.6681C81.8279 31.84 80.1072 33.5584 77.9377 34.321C71.2617 36.6673 65.1113 30.5169 67.4598 23.8432C68.2225 21.6714 69.9433 19.953 72.1128 19.1903C78.7887 16.8441 84.9391 22.9945 82.5906 29.6681Z" fill="#FFD9E1"/>
<path d="M63.9964 70.6387C63.9977 69.4097 63.0045 68.4124 61.7781 68.4111C60.5516 68.4098 59.5564 69.4051 59.5551 70.6341C59.5538 71.8631 60.547 72.8604 61.7734 72.8617C62.9998 72.863 63.9951 71.8677 63.9964 70.6387Z" fill="#BC2649"/>
<path d="M64.0771 68.6593C63.719 68.6593 63.347 68.5291 62.9935 68.271C62.5052 67.9176 62.1076 67.3618 61.8727 66.7061C61.3774 65.3225 61.7774 63.9087 62.7633 63.5553C63.14 63.4204 63.5586 63.4506 63.9702 63.646C64.605 63.9459 65.1584 64.611 65.449 65.4248C65.942 66.8084 65.5444 68.2222 64.5585 68.5756C64.4027 68.6314 64.2422 68.6593 64.0795 68.6593H64.0771ZM63.24 63.939C63.1284 63.939 63.0214 63.9576 62.9191 63.9948C62.175 64.2622 61.9006 65.4086 62.3099 66.5503C62.5122 67.1177 62.8517 67.5967 63.2656 67.8966C63.6516 68.178 64.0562 68.264 64.4003 68.1408C65.1444 67.8734 65.4188 66.727 65.0096 65.5853C64.7608 64.8854 64.2957 64.3203 63.7702 64.0715C63.5888 63.9855 63.4098 63.9436 63.24 63.9436V63.939Z" fill="#41193E"/>
<path d="M62.9912 65.8463C61.7193 62.2723 60.6613 60.3005 58.5685 59.3192C55.7549 57.9984 52.7413 59.6168 52.4297 59.7912C52.2297 59.9029 49.3022 61.3073 48.8138 64.5418C48.3325 67.7368 49.5579 71.0759 52.1065 73.0083V80.1469C52.1065 82.4374 53.9621 84.2953 56.2502 84.2953H56.7687C59.0568 84.2953 60.9124 82.4374 60.9124 80.1469V75.3777C62.3634 75.2568 63.5121 74.8336 63.9725 74.0988C64.798 72.7804 64.4887 70.0551 62.9889 65.8463H62.9912Z" fill="#F7AFBC"/>
<path d="M63.258 53.2054C62.4116 53.345 61.5628 53.4822 60.7164 53.6217C60.7676 53.9263 60.7978 54.2588 60.8001 54.6169C60.8001 54.7471 60.7955 54.875 60.7885 55.0006C60.7769 55.2075 60.6211 55.375 60.4188 55.4075C60.2141 55.4401 60.0165 55.3261 59.9421 55.1331C59.9374 55.1238 59.9351 55.1145 59.9305 55.1052C59.7351 54.6099 59.498 54.196 59.2701 53.8589C56.1728 54.3658 53.0731 54.875 49.9758 55.3819C50.1828 55.6749 50.692 56.4841 50.6711 57.6072C50.6386 59.3001 49.4247 60.3255 49.2364 60.4813C47.1715 62.7113 46.467 65.8411 47.432 68.592C48.5946 71.9055 51.6431 73.1403 52.1058 73.3193C52.7709 73.224 53.4498 73.117 54.1428 72.9938C55.4705 72.7612 56.7355 72.4938 57.9377 72.2055C56.7913 71.8265 56.1681 70.7917 56.0402 69.7035C55.8984 68.5106 56.7774 67.1782 58.0167 67.1317C58.8027 67.1015 59.4514 67.513 60.0304 68.8105C60.4932 68.5641 61.0396 68.2362 61.5024 67.9874C60.8862 66.7666 60.2676 65.5458 59.6514 64.325C59.8444 64.2297 64.2462 61.9811 64.4648 57.5584C64.5671 55.5005 63.7161 53.9216 63.2626 53.2031L63.258 53.2054Z" fill="#41193E"/>
<path d="M59.5842 68.2285C59.5051 68.2285 59.4284 68.189 59.3842 68.1145C59.3191 68.0053 59.354 67.8611 59.4656 67.796L64.7301 64.6498C64.8394 64.5847 64.9835 64.6196 65.0486 64.7312C65.1138 64.8405 65.0789 64.9847 64.9673 65.0498L59.7028 68.1959C59.6656 68.2192 59.6237 68.2285 59.5842 68.2285Z" fill="#41193E"/>
<path d="M60.9783 75.4965C60.8527 75.4965 60.7504 75.3965 60.7458 75.271L60.6993 73.5247C60.6969 73.3968 60.7969 73.2898 60.9248 73.2852C61.0527 73.2852 61.1597 73.3828 61.1643 73.5107L61.2108 75.257C61.2131 75.3849 61.1132 75.4919 60.9853 75.4965H60.9783Z" fill="#41193E"/>
<path d="M58.6037 70.2766C58.5409 70.2766 58.4781 70.251 58.4316 70.1999C58.2316 69.9813 58.0549 69.7813 57.8712 69.572C57.7201 69.4023 57.5666 69.2256 57.3922 69.0326C57.3062 68.9372 57.3131 68.7907 57.4085 68.7047C57.5038 68.6187 57.6503 68.6256 57.7363 68.721C57.9131 68.9163 58.0688 69.093 58.22 69.2651C58.4037 69.472 58.5781 69.672 58.7757 69.8883C58.8618 69.9836 58.8548 70.1301 58.7618 70.2161C58.7176 70.2557 58.6618 70.2766 58.606 70.2766H58.6037Z" fill="#41193E"/>
<path d="M71.6137 193.002H90.5137C92.2321 172.949 90.0021 145.512 73.532 117.541L36.0645 116.941L51.5207 140.473C51.5207 140.473 67.4932 157.925 71.6137 193V193.002Z" fill="#41193E"/>
<path d="M50.6588 193.002C64.4688 154.332 60.9297 119.457 60.9297 119.457L39.5044 118.199C32.2169 132.165 31.2728 167.6 31.7169 193.002H50.6565H50.6588Z" fill="#41193E"/>
<path d="M59.1836 127.704L72.3983 125.344L73.554 131.829C74.205 135.482 71.7751 138.972 68.1267 139.626C64.4783 140.277 60.9927 137.845 60.3416 134.192L59.1859 127.706L59.1836 127.704Z" fill="#602960"/>
<path d="M94.0625 86.288C95.7693 82.5884 100.018 74.336 103.622 68.2227C107.405 61.8026 113.928 52.8734 115.162 53.8012C115.867 54.3291 115.227 55.7312 113.274 59.3633C113.556 59.2773 114.418 59.1889 114.99 59.7865C115.837 60.6702 115.367 61.5956 115.358 61.6933C115.451 61.6561 116.467 61.291 117.134 61.7863C117.885 62.3444 118.048 63.1396 117.878 63.8558C118.113 63.7721 119.008 63.5512 119.636 64.0465C120.28 64.5557 120.585 65.5556 120.138 66.2904C119.318 67.6344 116.806 71.5851 115.816 73.657C113.869 77.7332 108.9 93.136 104.531 98.2842C101.585 93.243 97.0087 91.3269 94.0625 86.2857V86.288Z" fill="#F7AFBC"/>
<path d="M110.919 60.9849C110.865 60.9849 110.814 60.9663 110.77 60.9314L109.812 60.1338C109.714 60.0524 109.7 59.9059 109.782 59.8059C109.863 59.7083 110.009 59.6943 110.109 59.7757L111.067 60.5733C111.165 60.6547 111.179 60.8012 111.098 60.9011C111.051 60.957 110.986 60.9849 110.919 60.9849Z" fill="#41193E"/>
<path d="M113.35 63.0083C113.297 63.0083 113.246 62.9897 113.201 62.9548L112.243 62.1572C112.146 62.0758 112.132 61.9294 112.213 61.8294C112.295 61.7317 112.441 61.7178 112.541 61.7991L113.499 62.5967C113.597 62.6781 113.611 62.8246 113.529 62.9246C113.483 62.9804 113.418 63.0083 113.35 63.0083Z" fill="#41193E"/>
<path d="M115.85 65.0356C115.797 65.0356 115.746 65.017 115.701 64.9822L114.743 64.1846C114.646 64.1032 114.632 63.9567 114.713 63.8567C114.795 63.7591 114.941 63.7451 115.041 63.8265L115.999 64.6241C116.097 64.7055 116.111 64.8519 116.029 64.9519C115.983 65.0077 115.918 65.0356 115.85 65.0356Z" fill="#41193E"/>
<path d="M118.081 66.9263C118.027 66.9263 117.976 66.9077 117.932 66.8728L116.974 66.0752C116.876 65.9938 116.862 65.8473 116.944 65.7473C117.025 65.6497 117.172 65.6357 117.272 65.7171L118.23 66.5147C118.327 66.5961 118.341 66.7426 118.26 66.8426C118.213 66.8984 118.148 66.9263 118.081 66.9263Z" fill="#41193E"/>
<path d="M83.074 83.1484C99.2535 86.5806 107.569 90.508 105.771 96.5329C104.73 100.028 95.0214 101.751 82.1113 99.7209C82.3973 94.4959 82.588 89.4616 83.0717 83.1484H83.074Z" fill="#F7AFBC"/>
<path d="M100.062 88.6653C100.028 88.6653 99.9927 88.6583 99.9601 88.642C97.5976 87.4794 94.5399 86.3935 90.6147 85.3285C90.4915 85.2959 90.4171 85.168 90.452 85.0425C90.4845 84.9192 90.6124 84.8448 90.738 84.8797C94.6933 85.954 97.7767 87.0492 100.167 88.2258C100.283 88.2816 100.33 88.4211 100.274 88.5374C100.235 88.6188 100.151 88.6676 100.065 88.6676L100.062 88.6653Z" fill="#41193E"/>
<path d="M26.765 87.8125C10.1903 99.7436 2.59352 108.017 7.16972 113.026C9.82521 115.93 21.7122 112.761 35.2408 103.941C32.6922 98.9251 30.0018 93.8001 26.765 87.8148V87.8125Z" fill="#F7AFBC"/>
<path d="M22.0957 88.2754C22.0957 88.2754 38.2031 79.9485 53.6152 79.3904C66.7508 78.916 87.0716 84.041 87.0716 84.041L87.2646 104.648L79.3028 105.576L80.97 120.776L33.5757 123.185L32.6502 109.843L27.5137 110.952L22.098 88.2754H22.0957Z" fill="#BC2649"/>
<path d="M79.3704 105.669C79.2565 105.669 79.1565 105.585 79.1402 105.469C79.0472 104.802 78.9519 103.981 78.8612 103.185C78.7705 102.395 78.6775 101.576 78.5845 100.914C78.5659 100.786 78.6565 100.67 78.7821 100.651C78.91 100.632 79.0263 100.721 79.0449 100.849C79.1379 101.516 79.2332 102.337 79.3239 103.132C79.4146 103.923 79.5076 104.741 79.6006 105.404C79.6192 105.532 79.5285 105.648 79.403 105.667C79.3913 105.667 79.382 105.667 79.3704 105.667V105.669Z" fill="#41193E"/>
<path d="M15.2364 99.5078C27.1117 108.63 35.713 114.873 38.2918 116.906C38.5615 117.117 39.0405 117.492 39.5079 118.129C41.2403 120.484 40.0427 122.67 40.7334 125.979C41.517 129.734 44.0818 131.404 43.4795 132.176C43.061 132.713 41.9146 132.355 40.0358 130.834C41.331 132.153 43.0098 134.02 42.2797 134.734C41.3914 135.515 39.1614 133.553 37.8709 132.302C39.4335 133.818 39.8125 135.092 39.3056 135.387C38.508 135.855 37.0245 134.962 35.0364 132.878C36.0083 134.701 35.9711 135.287 35.4596 135.441C34.5248 135.72 32.9227 133.976 31.7437 132.218C30.416 130.239 30.0695 128.242 29.8835 126.977C20.9055 121.452 15.0039 117.747 7.66059 113.432C6.15845 112.548 11.1857 103.345 15.2364 99.5078Z" fill="#F7AFBC"/>
<path d="M26.817 108.672C26.7682 108.672 26.7194 108.655 26.6775 108.625C23.071 105.918 19.7318 103.388 16.4741 100.893C16.3718 100.814 16.3532 100.67 16.4299 100.568C16.509 100.466 16.6555 100.447 16.7555 100.524C20.0132 103.019 23.35 105.546 26.9566 108.251C27.0589 108.327 27.0798 108.474 27.0031 108.576C26.9566 108.637 26.8868 108.669 26.817 108.669V108.672Z" fill="#41193E"/>
<path d="M39.9846 131.01C39.9218 131.01 39.859 130.984 39.8149 130.935C39.4544 130.545 39.1452 130.105 38.901 129.633C38.6638 129.178 38.4848 128.689 38.3708 128.187C38.3429 128.061 38.422 127.938 38.5452 127.908C38.6708 127.88 38.794 127.959 38.8243 128.082C38.9289 128.547 39.094 128.996 39.3126 129.417C39.5381 129.852 39.8242 130.257 40.1567 130.617C40.2427 130.712 40.2381 130.859 40.1427 130.945C40.0985 130.987 40.0404 131.008 39.9846 131.008V131.01Z" fill="#41193E"/>
<path d="M37.983 132.497C37.9295 132.497 37.8737 132.478 37.8295 132.439C37.3668 132.034 36.9622 131.569 36.625 131.06C36.2995 130.567 36.0367 130.032 35.8484 129.472C35.8065 129.351 35.874 129.218 35.9949 129.177C36.1158 129.135 36.2483 129.202 36.2902 129.323C36.4669 129.846 36.7087 130.344 37.0134 130.804C37.3273 131.281 37.7063 131.713 38.1365 132.09C38.2341 132.174 38.2434 132.323 38.1574 132.418C38.1109 132.471 38.0481 132.497 37.983 132.497Z" fill="#41193E"/>
<path d="M35.0402 133.043C34.9751 133.043 34.91 133.015 34.8634 132.962C34.4356 132.469 34.0752 131.917 33.7938 131.332C33.5217 130.762 33.3218 130.16 33.2032 129.541C33.1799 129.415 33.2613 129.292 33.3869 129.269C33.5148 129.248 33.6357 129.327 33.6589 129.455C33.7706 130.036 33.9566 130.599 34.21 131.132C34.4751 131.683 34.8123 132.197 35.2122 132.659C35.296 132.757 35.2867 132.903 35.189 132.987C35.1448 133.024 35.0913 133.043 35.0378 133.043H35.0402Z" fill="#41193E"/>
</g>
<defs>
<clipPath id="clip0_853_8012">
<rect width="193" height="193" fill="white"/>
</clipPath>
</defs>
</svg>
